<svg width="82" height="16" viewBox="0 0 82 16" fill="none" xmlns="http://www.w3.org/2000/svg">
<path fill-rule="evenodd" clip-rule="evenodd" d="M9.81164 0.17927C10.2471 0.271997 10.9993 0.550178 11.4612 0.762125C11.9362 0.987319 12.3981 1.17277 12.4904 1.17277C12.596 1.17277 13.0711 0.987319 13.5461 0.762125C14.9053 0.13953 15.9346 -0.0591707 17.4654 0.0203095C18.2967 0.0600496 19.0753 0.192517 19.5504 0.364724C24.235 2.02056 26.3728 7.29275 24.1162 11.6377C23.4432 12.9358 22.6251 13.8631 21.4374 14.6579C20.1178 15.5454 19.1017 15.8766 17.4654 15.9693C15.9346 16.0488 14.9053 15.8501 13.5461 15.2275C13.0711 15.0023 12.596 14.8169 12.5168 14.8169C12.4245 14.8169 11.8966 15.0156 11.3424 15.2673C8.92749 16.3667 6.14311 16.221 3.86018 14.8831C3.50389 14.6844 2.7913 14.0751 2.27665 13.5584C-1.70858 9.51819 -0.257009 2.6829 5.03464 0.536931C5.45691 0.364724 6.05074 0.17927 6.35425 0.113037C7.23839 -0.0591706 8.95389 -0.0326771 9.81164 0.17927ZM4.11091 2.4842C5.03464 1.83511 5.8396 1.50394 6.94808 1.30524C9.00667 0.934331 11.5799 1.8616 13.0315 3.50419C14.1927 4.81561 14.9845 7.16028 14.4303 7.7034C14.2455 7.9021 13.9024 7.92859 12.0022 7.92859C9.95679 7.92859 9.75885 7.95508 9.42895 8.20677C9.01987 8.52469 8.99348 8.85586 9.28379 9.98183C9.57411 11.0946 9.99638 11.9688 10.7222 12.9226C11.0653 13.3862 11.316 13.8101 11.2764 13.8764C11.1444 14.0751 9.83803 14.5254 8.9143 14.6844C7.67386 14.9096 6.39384 14.6844 5.06103 14.0353C2.65933 12.8431 1.28694 10.6707 1.28694 8.03456C1.28694 5.65016 2.21067 3.83536 4.11091 2.4842Z" fill="white"/>
<path fill-rule="evenodd" clip-rule="evenodd" d="M33.2084 8.03456C33.8022 9.55794 34.2905 10.8429 34.2905 10.8826C34.2905 10.9356 33.9869 10.9753 33.6306 10.9753C32.9576 10.9753 32.9576 10.9753 32.7069 10.3792L32.4562 9.78313H30.5823L30.3316 10.3792C30.0809 10.9621 30.0545 10.9753 29.4871 10.9753C29.1572 10.9753 28.8668 10.9356 28.8404 10.8694C28.7877 10.8031 30.2788 6.89535 30.8595 5.57068C30.965 5.33224 31.097 5.27925 31.5589 5.27925H32.1263L33.2084 8.03456ZM30.9914 8.74988C30.9914 8.71014 31.097 8.36573 31.2158 7.96833C31.3345 7.58417 31.4665 7.26625 31.5061 7.26625C31.5984 7.26625 32.0471 8.4717 32.0471 8.68365C32.0471 8.76313 31.8096 8.81612 31.5193 8.81612C31.2289 8.81612 30.9914 8.78962 30.9914 8.74988Z" fill="white"/>
<path fill-rule="evenodd" clip-rule="evenodd" d="M38.8827 7.95508L38.8431 10.9091L38.2757 10.9488C37.8666 10.9753 37.6951 10.9356 37.6423 10.7899C37.5763 10.6044 37.5235 10.6044 37.1936 10.7766C36.9825 10.8826 36.547 10.9753 36.2171 10.9753C35.1746 10.9753 34.4224 10.0613 34.4224 8.78963C34.4224 7.99482 34.6731 7.41197 35.2142 6.94833C35.5969 6.63041 35.742 6.59067 36.3227 6.64366C36.6921 6.6834 37.1144 6.72314 37.2596 6.74963C37.4971 6.80262 37.5235 6.72314 37.5631 5.90184L37.6027 5.01432H38.9091L38.8827 7.95508ZM36.0455 9.62417C35.6365 9.24001 35.6233 8.40547 36.0323 7.96833C36.3754 7.59742 36.7977 7.58418 37.2068 7.91534C37.4575 8.11404 37.5235 8.2995 37.5235 8.78963C37.5235 9.27975 37.4575 9.46521 37.2068 9.66391C36.7977 9.99508 36.4282 9.98183 36.0455 9.62417Z" fill="white"/>
<path fill-rule="evenodd" clip-rule="evenodd" d="M45.7447 5.4647C46.3649 5.79587 46.7212 6.286 46.7872 6.92184C46.8796 7.65041 46.6684 8.22002 46.1406 8.65716C45.8107 8.93534 45.6127 8.98833 44.9133 8.98833C43.95 8.98833 43.9236 9.01482 43.9236 10.1938V10.9753H42.604V5.27925H43.9896C44.9397 5.27925 45.5072 5.34548 45.7447 5.4647ZM44.4911 7.79612H43.9236V6.60392H44.4911C45.1113 6.60392 45.3752 6.77613 45.3752 7.20002C45.3752 7.62392 45.1113 7.79612 44.4911 7.79612Z" fill="white"/>
<path fill-rule="evenodd" clip-rule="evenodd" d="M50.5481 6.82911C51.0759 7.14704 51.4322 7.75638 51.4718 8.47171L51.5114 9.05456L48.6082 9.18703L48.9118 9.47845C49.2417 9.82287 50.2182 9.90235 50.5085 9.61092C50.6405 9.47845 50.7328 9.53144 50.9967 9.84936C51.3794 10.3395 51.353 10.4455 50.7724 10.7369C50.139 11.0681 49.0305 11.0416 48.4103 10.6972C46.9851 9.8891 46.9983 7.53119 48.4367 6.82911C49.0173 6.53769 50.0466 6.53769 50.5481 6.82911ZM49.466 8.32599C48.6214 8.32599 48.4895 8.20677 48.9645 7.8756C49.3472 7.59742 49.7167 7.61067 50.0202 7.88885C50.4029 8.23326 50.2973 8.32599 49.466 8.32599Z" fill="white"/>
<path d="M53.5172 6.86885C53.5832 7.13379 53.5832 7.13379 53.9131 6.86885C54.1242 6.70989 54.4541 6.60392 54.7708 6.60392C55.2723 6.60392 55.2987 6.61717 55.2195 6.94833C55.1667 7.14703 55.0875 7.4782 55.048 7.69015C54.982 8.02132 54.9292 8.06106 54.6125 7.99482C54.375 7.94184 54.1638 7.99482 53.9527 8.16703C53.6371 8.41778 53.636 8.45816 53.5838 10.2531L53.5832 10.2733L53.5568 10.9753H52.9762C52.5671 10.9753 52.3691 10.9091 52.3164 10.7634C52.2108 10.4852 52.2108 6.80262 52.3296 6.69665C52.3691 6.64366 52.6463 6.60392 52.9366 6.60392C53.3325 6.60392 53.4644 6.65691 53.5172 6.86885Z" fill="white"/>
<path d="M58.5845 6.86885C59.02 7.09405 59.086 7.18678 58.9804 7.38548C58.7165 7.8756 58.4921 7.95508 58.0435 7.72989C57.5156 7.46496 57.0538 7.51794 57.0538 7.84911C57.0538 8.03456 57.2517 8.15378 57.8455 8.33924C58.7561 8.61742 59.0992 8.96183 59.0992 9.61092C59.0992 9.95533 58.9936 10.1805 58.6505 10.5249C58.2414 10.9356 58.1358 10.9753 57.3969 10.9753C56.5391 10.9753 55.5362 10.5912 55.5362 10.2733C55.5362 10.1938 55.6946 10.0083 55.8661 9.87585C56.1828 9.65066 56.2224 9.65066 56.8558 9.87585C57.3441 10.0481 57.542 10.0746 57.6608 9.95534C57.9247 9.6904 57.7004 9.42547 57.0802 9.26651C56.2092 9.05456 55.6682 8.55119 55.6682 7.96833C55.6682 7.71664 55.7342 7.39872 55.8001 7.26625C56.1564 6.59067 57.6344 6.39197 58.5845 6.86885Z" fill="white"/>
<path fill-rule="evenodd" clip-rule="evenodd" d="M63.0712 6.90859C64.4436 7.83586 64.4964 9.63742 63.1636 10.6177C62.6093 11.0283 61.4085 11.0813 60.7223 10.7236C59.2047 9.95534 59.1783 7.66366 60.6563 6.86885C61.3689 6.49795 62.4906 6.51119 63.0712 6.90859ZM61.8703 9.82287C60.973 9.82287 60.5771 8.51145 61.2897 7.94184C61.7516 7.58418 62.0683 7.59742 62.4642 7.99482C63.124 8.64391 62.7413 9.82287 61.8703 9.82287Z" fill="white"/>
<path d="M66.1987 6.81587C66.3174 7.02781 66.3438 7.02781 66.6342 6.81587C66.8057 6.69665 67.2016 6.60392 67.5447 6.60392C68.6927 6.60392 69.0358 7.30599 68.9699 9.51819L68.9303 10.9091L68.3101 10.9488L67.6766 10.9886V9.53144C67.6766 8.39223 67.6371 8.03456 67.4655 7.8756C67.2148 7.61067 66.8849 7.61067 66.5418 7.84911C66.3306 8.00807 66.2911 8.23326 66.2515 9.51819L66.1987 10.9886L65.5917 10.9488L64.9714 10.9091L64.9319 8.92209C64.9187 7.83586 64.9319 6.86885 64.9583 6.77613C65.0638 6.51119 66.0535 6.55093 66.1987 6.81587Z" fill="white"/>
<path fill-rule="evenodd" clip-rule="evenodd" d="M72.5196 6.80262C72.7704 6.97483 72.8099 6.97483 72.8759 6.80262C72.9287 6.67015 73.1398 6.60392 73.5489 6.60392H74.1427V10.9753H73.5489C73.153 10.9753 72.9287 10.9091 72.8495 10.7634C72.7308 10.5514 72.7044 10.5514 72.4141 10.7634C71.9918 11.0548 71.1604 11.0283 70.6458 10.7104C70.052 10.3395 69.7221 9.62417 69.7352 8.72339C69.7352 7.84911 70.0388 7.21327 70.6194 6.86885C71.1208 6.55093 72.1237 6.52444 72.5196 6.80262ZM71.7147 9.83612C70.9757 9.65066 70.7645 8.32599 71.4111 7.86236C71.8202 7.57093 72.2029 7.61067 72.546 7.98158C73.219 8.6969 72.612 10.0613 71.7147 9.83612Z" fill="white"/>
<path d="M76.5181 6.80262C76.5181 6.98807 76.5576 6.98807 76.9139 6.80262C77.4682 6.51119 78.2599 6.55093 78.6162 6.8821C78.7746 7.02781 78.9725 7.12054 79.0649 7.06755C79.1573 7.02781 79.3684 6.90859 79.5532 6.80262C79.7379 6.69665 80.1338 6.60392 80.4505 6.60392C80.9124 6.60392 81.0971 6.6834 81.4006 6.97483C81.8493 7.42522 81.9549 8.03456 81.9021 9.71689L81.8625 10.9091L81.2423 10.9488L80.6089 10.9886V9.61092C80.6089 8.45846 80.5693 8.16703 80.3713 7.92859C80.1866 7.69015 80.0414 7.65041 79.7775 7.71664C79.3552 7.82262 79.3024 7.96833 79.2628 9.4917C79.2497 10.1673 79.1969 10.7899 79.1441 10.8561C79.1045 10.9356 78.801 10.9753 78.4843 10.9488L77.9036 10.9091L77.8641 9.42547C77.8377 8.08755 77.7981 7.91534 77.5606 7.79612C77.2043 7.59742 76.7952 7.75638 76.6368 8.15378C76.5708 8.32599 76.5181 9.04131 76.5181 9.73014V10.9886L75.8978 10.9488L75.2644 10.9091L75.2248 8.92209C75.2116 7.83586 75.2248 6.86885 75.2512 6.77613C75.3568 6.51119 76.5181 6.53769 76.5181 6.80262Z" fill="white"/>
</svg>
