<svg width="76" height="15" viewBox="0 0 76 15" fill="none" xmlns="http://www.w3.org/2000/svg">
<path d="M10.2272 0.0223996C10.147 0.0350682 10.0118 0.0857423 9.93161 0.127971C9.78803 0.208205 9.38686 0.271548 8.51696 0.36445C8.2847 0.385564 7.9891 0.42357 7.86242 0.448907C7.73573 0.470021 7.51192 0.508027 7.36834 0.533364C6.96717 0.605152 6.30419 0.702278 6.06771 0.723392C5.41317 0.790958 5.23158 0.841632 5.05422 0.997877C4.83886 1.19213 4.58127 1.31037 4.23077 1.37793C4.07875 1.40327 3.82538 1.46239 3.66068 1.50884C3.50022 1.55529 3.17083 1.62708 2.93436 1.67353C2.69788 1.71576 2.45717 1.78333 2.4065 1.81711C2.28826 1.90157 2.17847 1.90157 2.14468 1.82133C2.09401 1.6862 1.92087 1.75377 1.70128 1.99447C1.34234 2.38297 1.30434 2.50966 1.28322 3.34156C1.27478 3.73428 1.28745 4.35926 1.31701 4.72665C1.34656 5.09404 1.35923 5.40231 1.34234 5.4192C1.32967 5.43187 1.27055 5.4192 1.21566 5.38964C0.89472 5.22072 0.328859 5.62189 0.130385 6.1582C-0.0427514 6.63115 -0.0427514 6.68183 0.126162 6.93098C0.324636 7.22235 0.468213 7.2688 1.04252 7.22658C1.49014 7.19702 1.52815 7.20968 1.52815 7.42083C1.52815 7.47995 1.59571 7.78399 1.67595 8.1007C1.75618 8.41319 1.84064 8.83126 1.86175 9.02551C1.88709 9.21976 1.92932 9.56603 1.95465 9.78984C2.00533 10.153 2.00111 10.2248 1.93776 10.4275C1.89976 10.5542 1.86598 10.6851 1.86598 10.7189C1.86598 10.7527 1.82797 10.816 1.78152 10.8582C1.65061 10.9765 1.68017 11.0356 1.94199 11.1665C2.07712 11.2341 2.27981 11.3523 2.39805 11.4325C2.80767 11.7112 3.45799 12.0406 3.6818 12.0828C3.91406 12.1293 4.34479 12.2644 4.73329 12.4165C5.32449 12.6445 6.99251 13.1428 7.50347 13.2441C7.94265 13.3286 10.2863 14.076 10.4764 14.19C10.5397 14.2281 11.1689 14.3885 11.4223 14.4265C11.5659 14.4519 11.9755 14.511 12.326 14.5659C12.8749 14.6461 12.9678 14.6672 12.9509 14.7263C12.9087 14.8573 13.0312 14.8953 13.4999 14.8953C14.2009 14.8953 14.5599 14.7517 14.7837 14.3716C14.8723 14.2281 14.8766 14.1816 14.8512 13.8649C14.8343 13.6369 14.847 13.3624 14.8892 13.0583C14.9441 12.6994 14.9568 12.2095 14.9568 10.8498C14.9568 9.29999 14.9652 9.08463 15.0286 8.96639C15.113 8.80592 15.1088 8.86082 15.1468 7.27725C15.1806 6.06952 15.1891 6.00195 15.3031 6.01884C15.3495 6.02306 15.6747 5.70635 15.6747 5.65145C15.6747 5.62612 15.5607 5.58389 15.4255 5.55433L15.1764 5.50788L15.151 5.24606C15.113 4.85334 15.0708 3.48936 15.1004 3.48936C15.113 3.48936 15.1722 3.51047 15.2313 3.54003C15.3284 3.58226 15.3537 3.57381 15.4847 3.44713C15.5649 3.36689 15.6325 3.28244 15.6325 3.2571C15.6325 3.18109 15.5015 3.08396 15.2904 3.00795C15.1004 2.93616 15.0919 2.92772 15.0666 2.71658C15.0159 2.26473 15.0328 2.1296 15.1679 1.96913C15.3242 1.78755 15.3284 1.73265 15.1891 1.69887C15.0793 1.66931 15.0539 1.61441 15.1257 1.56796C15.151 1.55529 15.1679 1.51306 15.1679 1.47928C15.1679 1.43705 15.1088 1.42016 14.9272 1.42016C14.7921 1.42016 14.4923 1.39905 14.26 1.37371C14.0278 1.3526 13.3817 1.31459 12.8243 1.29348C12.2668 1.26814 11.5447 1.22169 11.2196 1.18791C10.8944 1.15412 10.2906 1.11189 9.88094 1.09923C9.4671 1.08233 9.12927 1.06122 9.12927 1.04433C9.12927 0.993654 10.1512 0.448907 10.2525 0.448907C10.3328 0.448907 10.5693 0.153308 10.5566 0.0772966C10.5397 -0.00293745 10.4468 -0.0198288 10.2272 0.0223996ZM9.38264 0.609375C9.38264 0.626267 9.27707 0.693832 9.15038 0.757175C8.82945 0.91342 8.55074 1.17524 8.54652 1.32304L8.54229 1.44128L9.33197 1.4455C9.79226 1.4455 10.4046 1.47928 10.7973 1.52151C11.1689 1.56374 11.9121 1.61441 12.4442 1.6313C12.9805 1.65242 13.635 1.6862 13.9011 1.71154C14.1671 1.73688 14.505 1.75799 14.6528 1.75799C14.9315 1.75799 14.9652 1.78333 14.8301 1.90579C14.7161 2.00714 14.6612 2.22673 14.6612 2.56878V2.84748L14.1671 2.87704C13.635 2.91083 13.4239 2.95305 12.82 3.15575C12.4695 3.26977 12.4104 3.30777 12.1951 3.53158C12.0641 3.66672 11.9586 3.79762 11.9586 3.82296C11.9586 3.91164 12.0895 3.86941 12.2077 3.74273C12.3133 3.62871 12.8749 3.37956 12.9214 3.42601C12.9298 3.43446 12.8285 3.55692 12.6891 3.69628C12.554 3.83563 12.4104 4.00877 12.3682 4.08055C12.2415 4.2917 12.3935 4.24102 12.6258 3.99187C12.7356 3.87364 12.896 3.7385 12.9847 3.69205C13.1621 3.60337 14.2178 3.36267 14.4374 3.36267C14.7119 3.36267 14.7034 3.33311 14.7034 4.24525C14.7034 4.70131 14.7245 5.14471 14.7414 5.23761L14.7794 5.39808L14.5641 5.36852C14.4416 5.35585 14.146 5.31363 13.9011 5.27984C13.6562 5.24606 13.1959 5.20805 12.8792 5.19116L12.3006 5.16583L12.1233 5.33896C12.0304 5.43609 11.9628 5.52899 11.9712 5.54588C11.9839 5.567 12.1233 5.57122 12.2837 5.55433C12.7145 5.51632 13.2677 5.55855 13.2677 5.63456C13.2677 5.65145 13.2085 5.72746 13.1325 5.8077C12.9763 5.97661 12.9974 6.04418 13.2508 6.17086C13.369 6.22998 13.521 6.25954 13.7955 6.26799C14.1376 6.28066 14.184 6.27643 14.2558 6.1962C14.3191 6.12864 14.3867 6.10752 14.5641 6.10752H14.7879L14.7837 6.89719C14.7752 7.9149 14.7245 8.81437 14.657 9.08463C14.6232 9.2282 14.5979 9.92497 14.5767 11.2594C14.5599 12.4798 14.5303 13.337 14.4965 13.5186C14.4669 13.6791 14.4501 13.9536 14.4585 14.1225L14.4712 14.435L14.3023 14.4941C14.2094 14.5237 14.0573 14.5532 13.9644 14.5532C13.8715 14.5532 13.7237 14.5701 13.6393 14.5912C13.5084 14.6208 13.4619 14.6123 13.3732 14.5448C13.3057 14.4941 13.2719 14.435 13.2888 14.3885C13.3057 14.3294 13.2128 14.3083 12.5582 14.2238C11.777 14.1183 10.9873 13.9536 10.8353 13.8564C10.7888 13.8269 10.6664 13.7762 10.565 13.7509C10.4679 13.7255 10.2863 13.658 10.1681 13.6031C10.0499 13.5482 9.89361 13.4933 9.82604 13.4764C9.75425 13.4595 9.47977 13.3835 9.21373 13.3033C8.51274 13.0921 8.06089 12.9696 7.65127 12.8683C7.4528 12.8176 7.16142 12.7416 6.99673 12.6952C6.83626 12.6487 6.63357 12.598 6.55333 12.5854C6.4731 12.5727 6.35064 12.5347 6.27885 12.5051C6.21128 12.4756 5.98325 12.3996 5.77211 12.3362C5.37516 12.2138 5.32026 12.1926 5.07534 12.0871C4.79663 11.9646 4.33634 11.8126 4.05341 11.745C3.77048 11.6817 2.9428 11.289 2.77811 11.1412C2.73166 11.0989 2.65987 11.0483 2.62609 11.0314C2.41495 10.9385 2.09823 10.7189 2.08556 10.664C2.08134 10.6302 2.1109 10.5584 2.15735 10.5077C2.19958 10.4528 2.27137 10.2881 2.3136 10.1403C2.38116 9.87852 2.38116 9.83629 2.3136 9.32533C2.27559 9.02973 2.23336 8.70457 2.22069 8.599C2.20803 8.49343 2.13201 8.14716 2.05178 7.822C1.97155 7.50106 1.89976 7.14212 1.89131 7.01966C1.88287 6.90142 1.86598 6.77473 1.85331 6.74095C1.84064 6.70717 1.81952 6.61849 1.80263 6.55092C1.76463 6.39467 1.70128 4.83222 1.67172 3.46824C1.64639 2.26895 1.65061 2.25629 1.97155 2.2225C2.08979 2.20983 2.25025 2.16761 2.33049 2.1296C2.41072 2.09159 2.57541 2.04937 2.68943 2.03247C2.80767 2.01558 3.14972 1.93957 3.44954 1.86356C3.75359 1.78755 4.07452 1.71154 4.16743 1.69465C4.58127 1.62708 4.77974 1.54262 4.95288 1.35682C5.13868 1.16257 5.18513 1.14568 5.76788 1.08233C5.95791 1.06122 6.4731 0.985209 6.91228 0.91342C7.63861 0.79518 8.20447 0.719169 9.06593 0.622044C9.23062 0.60093 9.36575 0.584038 9.3742 0.579815C9.37842 0.579815 9.38264 0.592484 9.38264 0.609375ZM1.06786 5.88793C1.10586 5.93016 1.14809 6.01462 1.16076 6.07374C1.17765 6.12864 1.23677 6.22998 1.29589 6.29333C1.38035 6.38623 1.40146 6.44957 1.40146 6.63115V6.85496L1.14387 6.8803C0.772258 6.91408 0.586453 6.8254 0.451322 6.55937C0.371088 6.3989 0.371088 6.32289 0.455544 6.03573C0.510441 5.8457 0.544224 5.79503 0.654018 5.74858C0.801818 5.68524 0.941172 5.73169 1.06786 5.88793Z" fill="white"/>
<path d="M8.45339 3.54848C8.34782 3.57804 8.07334 3.63716 7.84108 3.67939C7.30056 3.78074 7.271 3.78918 6.89094 4.04677C6.55311 4.27481 5.96191 4.84912 5.96191 4.94624C5.96191 5.06026 6.0337 5.04759 6.22373 4.89134C6.32508 4.80266 6.48555 4.70132 6.57845 4.66331C7.03029 4.47751 7.4568 4.32548 7.84108 4.22836C8.1958 4.13545 8.31826 4.11856 8.60542 4.13968C9.16283 4.18191 9.54711 4.3466 9.55133 4.55352C9.55133 4.59574 9.564 4.62953 9.57667 4.62953C9.64001 4.62953 9.83426 4.45639 9.89761 4.3466C9.9694 4.21991 9.9694 4.21991 9.83426 4.09323C9.66113 3.92853 9.36553 3.83141 8.95169 3.79763C8.77011 3.78496 8.62231 3.76384 8.62231 3.75118C8.62231 3.73851 8.65187 3.69628 8.68987 3.65405C8.72788 3.61182 8.74477 3.55692 8.72788 3.53581C8.69832 3.48091 8.6941 3.48091 8.45339 3.54848Z" fill="white"/>
<path d="M11.1139 4.01718L10.9703 4.16498L11.0252 4.68439C11.0548 4.96732 11.0843 5.62608 11.097 6.14972C11.1223 7.28144 11.1308 7.35323 11.2659 7.47147C11.3208 7.51792 11.3968 7.61927 11.4306 7.68683C11.4939 7.80507 11.4897 7.81774 11.3841 7.92753L11.2744 8.04577L11.3715 8.18513C11.4264 8.26114 11.5151 8.36249 11.5699 8.40894L11.6671 8.4934H11.0928H10.5185L10.3411 8.68342C9.93571 9.11838 9.80058 9.32952 9.87237 9.40131C9.92304 9.45198 10.1088 9.28729 10.2482 9.06348C10.3073 8.97058 10.3876 8.87767 10.434 8.85234C10.5522 8.79322 10.945 8.80166 11.363 8.87345C11.7853 8.94946 11.9458 8.91568 12.1611 8.71298C12.3301 8.55252 12.3301 8.48917 12.1654 8.32026C12.0387 8.18935 12.0387 8.18091 12.102 8.08378C12.1654 7.98665 12.1654 7.96976 12.0936 7.87686C12.0556 7.82196 11.9922 7.71639 11.9585 7.64883C11.9247 7.57704 11.8402 7.43768 11.7726 7.33634C11.7051 7.23499 11.6417 7.10408 11.6333 7.04074C11.5615 6.59734 11.5319 6.25951 11.5193 5.72743C11.5108 5.3896 11.4855 5.04755 11.4559 4.96732C11.4306 4.88709 11.3884 4.60415 11.3588 4.34234C11.3335 4.08474 11.2997 3.86938 11.2828 3.86938C11.2701 3.86938 11.1941 3.93694 11.1139 4.01718Z" fill="white"/>
<path d="M7.24995 5.09398C7.11059 5.1151 6.92901 5.15733 6.84877 5.19111C6.66719 5.27134 6.2998 5.63451 6.2998 5.73586C6.2998 5.85409 6.39693 5.82453 6.54895 5.66829C6.64608 5.56694 6.74743 5.51204 6.86567 5.49093C6.95857 5.47404 7.08525 5.45292 7.14437 5.44448C7.35129 5.40647 8.24231 5.43603 8.35633 5.48248L8.47457 5.53316L8.36055 5.55005C8.25076 5.56272 7.86226 5.93011 7.86226 6.02301C7.86226 6.04835 7.90449 6.08213 7.95938 6.10324C8.04384 6.13703 8.05651 6.16659 8.03962 6.29327C8.01428 6.5213 8.09874 6.48752 8.41545 6.14547L8.69838 5.84565L9.00243 5.85832C9.30225 5.87521 9.31069 5.87099 9.45005 5.72741C9.53028 5.64718 9.59362 5.55427 9.59362 5.51627C9.59362 5.43603 9.45427 5.3009 9.29803 5.23334C9.04888 5.11932 7.70601 5.03064 7.24995 5.09398Z" fill="white"/>
<path d="M13.8714 7.06614C13.7405 7.21394 13.7363 7.23083 13.8039 7.27728C13.9094 7.35752 13.9643 7.34485 14.1079 7.20127C14.2599 7.04925 14.2684 7.01124 14.1586 6.95212C14.0403 6.88878 14.0319 6.893 13.8714 7.06614Z" fill="white"/>
<path d="M12.9765 7.44198C12.7569 7.66157 12.6766 7.77136 12.7146 7.78826C12.8118 7.82204 13.044 7.67002 13.2045 7.46732C13.3396 7.29418 13.3987 7.12105 13.3227 7.12105C13.3101 7.12105 13.1496 7.26462 12.9765 7.44198Z" fill="white"/>
<path d="M7.30078 7.32366C7.21632 7.41234 7.14453 7.50102 7.14453 7.51791C7.14453 7.60659 7.45702 7.4968 7.57104 7.37011C7.79907 7.11674 7.5457 7.07029 7.30078 7.32366Z" fill="white"/>
<path d="M8.5087 7.34054C8.36935 7.48834 8.31867 7.62769 8.39468 7.65725C8.4538 7.67837 8.75785 7.34054 8.73673 7.2772C8.70717 7.18852 8.63961 7.20541 8.5087 7.34054Z" fill="white"/>
<path d="M10.1004 7.46301C10.037 7.58124 10.0835 7.62347 10.1637 7.5179C10.2355 7.425 10.244 7.37433 10.1848 7.37433C10.1637 7.37433 10.1257 7.41233 10.1004 7.46301Z" fill="white"/>
<path d="M14.3699 7.73329C14.1165 8.012 14.1418 8.16402 14.4079 7.94021C14.6063 7.7713 14.7035 7.54326 14.5768 7.54326C14.5599 7.54326 14.467 7.62772 14.3699 7.73329Z" fill="white"/>
<path d="M6.23235 8.01619C6.131 8.13021 6.093 8.19778 6.12678 8.21044C6.19012 8.23156 6.46883 7.97396 6.46883 7.89373C6.46883 7.79661 6.39704 7.83461 6.23235 8.01619Z" fill="white"/>
<path d="M13.5588 8.00364C13.3772 8.181 13.3519 8.26123 13.4701 8.26123C13.5672 8.26123 13.8164 8.00786 13.8164 7.91073C13.8164 7.79672 13.7362 7.82628 13.5588 8.00364Z" fill="white"/>
<path d="M12.9089 8.53569C12.8414 8.59059 12.7485 8.63704 12.7062 8.64126C12.5922 8.64126 12.2544 8.98331 12.2544 9.09311C12.2544 9.23246 12.3473 9.21135 12.5035 9.04243C12.5753 8.9622 12.6682 8.89463 12.7105 8.89463C12.7907 8.89463 13.2256 8.53569 13.2256 8.46813C13.2256 8.39212 13.0314 8.43434 12.9089 8.53569Z" fill="white"/>
<path d="M6.42233 8.60741C6.35054 8.68342 6.23652 8.81855 6.16474 8.90301C6.05072 9.04659 6.0465 9.06348 6.12251 9.06348C6.20274 9.06348 6.63769 8.63275 6.63769 8.55674C6.63769 8.45961 6.54057 8.48072 6.42233 8.60741Z" fill="white"/>
<path d="M13.9308 8.66657C13.8632 8.7468 13.8168 8.82282 13.8252 8.82704C13.8294 8.83548 13.9181 8.88194 14.0195 8.93261L14.201 9.02551L14.3488 8.86927C14.4291 8.78059 14.4924 8.69613 14.4924 8.67502C14.4924 8.63701 14.2137 8.51455 14.1166 8.51455C14.0786 8.51455 13.9941 8.58211 13.9308 8.66657Z" fill="white"/>
<path d="M8.25959 8.66662C8.16669 8.7004 8.01467 8.80175 7.92599 8.89465C7.78663 9.03823 7.77396 9.06357 7.83731 9.0889C7.87531 9.1058 7.96822 9.08468 8.04423 9.0509C8.12024 9.01289 8.22581 8.97489 8.28493 8.96222C8.40317 8.93688 8.60164 8.70462 8.55941 8.64128C8.52563 8.58638 8.47073 8.59061 8.25959 8.66662Z" fill="white"/>
<path d="M9.59356 9.04667C9.38242 9.2367 9.37397 9.30426 9.57245 9.28315C9.6738 9.27048 9.75825 9.21981 9.84693 9.12268C9.9145 9.04245 9.97362 8.95799 9.97362 8.93688C9.97362 8.83975 9.75403 8.90309 9.59356 9.04667Z" fill="white"/>
<path d="M10.2609 10.702C10.092 10.8666 9.96954 11.0144 9.99065 11.0356C10.0075 11.0524 10.3369 11.0693 10.717 11.0693C11.097 11.0693 11.4095 11.082 11.4095 11.0989C11.4095 11.12 11.3926 11.1327 11.3673 11.1327C11.304 11.1327 10.9872 11.4283 10.9872 11.4874C10.9872 11.517 11.0886 11.5803 11.2153 11.6352C11.5615 11.7788 11.5742 11.8126 11.3504 12.0237C11.2448 12.1208 11.1562 12.2222 11.1562 12.2517C11.1562 12.2813 11.2702 12.3742 11.4053 12.4544C11.6291 12.5853 11.7178 12.6107 12.2203 12.6782C12.6637 12.7331 12.7988 12.7669 12.858 12.8345C12.9255 12.9105 12.9382 12.9105 13.0311 12.8472C13.1536 12.7711 13.352 12.5178 13.352 12.4502C13.352 12.4206 13.314 12.3995 13.2676 12.3995C13.2211 12.3995 13.1831 12.3869 13.1831 12.3658C13.1831 12.3489 13.1367 12.2813 13.0776 12.218C12.9846 12.1208 12.934 12.1039 12.7439 12.1039C12.4061 12.1039 12.2541 12.0659 12.2541 11.9773C12.2541 11.935 12.2837 11.8801 12.3174 11.8506C12.4526 11.7408 12.3766 11.631 12.0979 11.5381C11.9543 11.4874 11.8107 11.4241 11.7811 11.3945C11.7558 11.3692 11.7051 11.3438 11.6756 11.3438C11.646 11.3438 11.6207 11.3185 11.6207 11.2889C11.6207 11.2594 11.7474 11.1791 11.9078 11.1116C12.1527 11.0102 12.2583 10.9891 12.6975 10.9764C12.9762 10.9638 13.3732 10.9722 13.5801 10.9933L13.9559 11.0313L14.1037 10.892C14.3444 10.6639 14.3148 10.6555 13.2465 10.5837C12.9678 10.5626 12.6173 10.5373 12.4652 10.5246C12.3132 10.5119 11.8571 10.495 11.4518 10.4824C11.0464 10.4739 10.679 10.4528 10.6367 10.4359C10.5818 10.4148 10.4889 10.4781 10.2609 10.702Z" fill="white"/>
<path d="M42.1511 4.1674C41.8533 4.33121 40.9746 5.41088 40.714 5.9321C40.6396 6.07357 40.5279 6.27462 40.4609 6.37886C40.297 6.63202 40.1705 7.19047 40.1705 7.65213C40.1705 7.86062 40.1332 8.1659 40.0811 8.32971C40.0141 8.55309 40.0141 8.7318 40.0886 9.11899C40.3194 10.3774 40.6172 10.839 41.4958 11.2932L41.9575 11.5389L42.5234 11.3751C43.2159 11.1741 43.5733 10.906 43.9754 10.2731C44.2583 9.81891 44.2658 9.79658 44.1466 9.61787C43.9456 9.31259 43.6924 9.29769 43.4244 9.5732C43.2978 9.69978 43.1563 9.92316 43.1116 10.0795C43.0521 10.288 42.9627 10.3923 42.7095 10.5337C42.3 10.7571 42.099 10.7124 41.6894 10.3029C41.2203 9.82636 41.0416 9.2828 41.0044 8.22547C40.9746 7.35429 40.9746 7.35429 41.2501 6.73627C41.4065 6.39375 41.615 6.00656 41.7267 5.86509C41.9426 5.58958 42.1511 5.27685 42.2256 5.12793C42.3075 4.95667 42.7021 4.80031 42.9255 4.85243C43.1861 4.912 43.3797 5.20984 43.5509 5.79807C43.6477 6.14803 43.7073 6.23739 43.8562 6.27462C44.1541 6.34908 44.2658 6.19271 44.2658 5.72361C44.2658 5.12049 44.1317 4.76308 43.7967 4.48013C43.201 3.96636 42.6723 3.86956 42.1511 4.1674Z" fill="white"/>
<path d="M73.2753 4.42048C72.486 5.06829 71.6446 7.26486 71.9648 7.86798C72.0765 8.06902 72.4413 8.16582 73.1487 8.17327C74.206 8.18071 74.422 8.23284 74.5783 8.53812C74.8241 8.99233 74.6975 9.8933 74.3326 10.3475C74.1911 10.5188 74.1018 10.556 73.7891 10.5709C73.588 10.5783 73.2976 10.556 73.1487 10.5188C72.903 10.4666 72.8658 10.4815 72.7094 10.6975C72.5307 10.9506 72.5456 11.1963 72.7615 11.4048C72.8658 11.5091 72.97 11.524 73.3646 11.4867C74.005 11.4197 74.2358 11.308 74.6826 10.8762C75.1889 10.3773 75.3304 10.0497 75.3751 9.28272C75.4123 8.47111 75.2932 7.87543 75.0474 7.63716C74.8687 7.47334 74.7794 7.45845 73.9082 7.42122C72.7839 7.37655 72.6871 7.33187 72.7541 6.87022C72.8211 6.46813 72.9849 6.06605 73.3051 5.54483C73.7369 4.83001 73.9156 4.88958 73.9752 5.76821L74.0124 6.34155L74.2805 6.36389C74.5039 6.38623 74.556 6.35644 74.6305 6.19263C74.8464 5.72353 74.6454 4.59174 74.2954 4.31624C73.9827 4.06308 73.6848 4.09286 73.2753 4.42048Z" fill="white"/>
<path d="M37.8479 4.2565C37.8256 4.27884 37.3639 4.30862 36.8129 4.32352C36.0609 4.33841 35.7407 4.37564 35.5173 4.47244C35.1674 4.6288 34.5493 4.65859 34.4228 4.532C34.3036 4.41287 34.0951 4.42031 33.7079 4.56923L33.3803 4.69582L33.425 5.2915C33.559 7.02642 33.559 7.47318 33.4324 8.60497C33.3654 9.24532 33.2537 9.93036 33.1942 10.1388C33.0527 10.5707 33.0453 11.1292 33.1644 11.3525C33.2165 11.4493 33.358 11.5312 33.5218 11.561C33.9835 11.6504 35.0929 11.4344 35.8896 11.1068C36.0162 11.0547 36.4481 10.9877 36.8576 10.9579C38.0936 10.876 38.4138 10.7345 38.3691 10.2952C38.3468 10.0718 38.3394 10.0644 37.9745 10.0718C37.5129 10.0718 36.2173 10.2878 35.5173 10.4739C34.4153 10.7643 34.2664 10.7866 34.1994 10.6824C34.1324 10.5856 34.1622 9.73676 34.2441 9.4687C34.2664 9.3868 34.3334 9.13363 34.3855 8.91025L34.4823 8.50072L34.8546 8.43371C35.5769 8.31457 35.8077 8.21778 35.8822 8.00184C35.9343 7.85292 35.9269 7.77102 35.845 7.67422C35.763 7.56997 35.6514 7.55508 35.212 7.59231C34.6908 7.62954 34.6759 7.62954 34.5866 7.43595C34.5419 7.32426 34.4823 6.92962 34.46 6.54987C34.4079 5.72337 34.4972 5.52232 34.9365 5.44786C35.0929 5.41808 35.3907 5.34362 35.5918 5.27661C35.8003 5.21704 36.0683 5.15747 36.1875 5.15002C36.314 5.13513 36.7608 5.11279 37.1927 5.08301C38.183 5.02344 38.2872 4.99366 38.3468 4.81495C38.4436 4.51711 38.0415 4.06291 37.8479 4.2565Z" fill="white"/>
<path d="M50.7291 4.25668C50.7068 4.27902 50.26 4.3088 49.7313 4.32369C48.9644 4.33859 48.6665 4.37582 48.2719 4.50984C47.7879 4.6811 47.7656 4.6811 47.3635 4.55452C46.9763 4.43538 46.9391 4.43538 46.6114 4.56197L46.2615 4.69599L46.3062 5.29167C46.4402 7.0117 46.4402 7.47335 46.3211 8.60514C46.254 9.2455 46.1349 9.95287 46.0679 10.1763C45.9339 10.623 45.919 11.1219 46.0456 11.3602C46.2466 11.725 47.572 11.5984 48.7708 11.107C48.8974 11.0549 49.3292 10.9879 49.7388 10.9581C50.9748 10.8762 51.295 10.7347 51.2503 10.2954C51.2354 10.1018 51.1907 10.0571 51.0195 10.0422C50.7961 10.0124 48.6889 10.3624 48.391 10.4815C48.2868 10.5188 47.9666 10.6007 47.6688 10.6602C47.2518 10.7496 47.1252 10.7496 47.0805 10.6751C47.0135 10.5858 47.0433 9.73694 47.1252 9.46888C47.1476 9.38697 47.2071 9.13381 47.2593 8.91043L47.356 8.50835L47.9815 8.38921C48.6144 8.26263 48.808 8.13605 48.808 7.86054C48.808 7.61483 48.607 7.54781 48.056 7.59249C47.5496 7.63716 47.5348 7.62972 47.4603 7.44357C47.4231 7.33188 47.3709 6.93724 47.3412 6.55749C47.289 5.72354 47.3784 5.5225 47.8177 5.44804C47.9741 5.41826 48.2719 5.3438 48.473 5.27678C48.6814 5.21721 48.9495 5.15765 49.0686 5.14275C49.1952 5.13531 49.6792 5.10552 50.1483 5.07574C51.0269 5.02362 51.2652 4.93427 51.2652 4.67366C51.2652 4.39071 50.8855 4.10031 50.7291 4.25668Z" fill="white"/>
<path d="M63.8336 4.25668C63.8112 4.27902 63.3645 4.3088 62.8358 4.32369C62.0689 4.33859 61.771 4.37582 61.3764 4.50984C60.8924 4.6811 60.8701 4.6811 60.468 4.55452C60.0808 4.43538 60.0436 4.43538 59.7159 4.56197L59.366 4.69599L59.4107 5.29167C59.5447 7.0117 59.5447 7.47335 59.4255 8.60514C59.3585 9.2455 59.2394 9.95287 59.1724 10.1763C59.0384 10.623 59.0235 11.1219 59.15 11.3602C59.3511 11.725 60.6765 11.5984 61.8753 11.107C62.0019 11.0549 62.4337 10.9879 62.8433 10.9581C64.0793 10.8762 64.3995 10.7347 64.3548 10.2954C64.3399 10.1018 64.2952 10.0571 64.124 10.0422C63.9006 10.0124 61.7934 10.3624 61.4955 10.4815C61.3913 10.5188 61.0711 10.6007 60.7733 10.6602C60.3563 10.7496 60.2297 10.7496 60.185 10.6751C60.118 10.5858 60.1478 9.73694 60.2297 9.46888C60.2521 9.38697 60.3116 9.13381 60.3637 8.91043L60.4605 8.50835L61.086 8.38921C61.7189 8.26263 61.9125 8.13605 61.9125 7.86054C61.9125 7.61483 61.7115 7.54781 61.1605 7.59249C60.6467 7.63716 60.6392 7.63716 60.5648 7.43612C60.5201 7.32443 60.468 6.92979 60.4456 6.55005C60.3935 5.72354 60.4829 5.5225 60.9222 5.44804C61.0786 5.41826 61.3764 5.3438 61.5774 5.27678C61.7859 5.21721 62.054 5.15765 62.1731 5.14275C62.2997 5.13531 62.7837 5.10552 63.2528 5.07574C64.1314 5.02362 64.3697 4.93427 64.3697 4.67366C64.3697 4.39071 63.9899 4.10031 63.8336 4.25668Z" fill="white"/>
<path d="M23.0151 4.74794C22.6056 4.98621 22.2258 5.23193 22.1662 5.28405C22.0918 5.35851 22.0471 5.72336 21.995 6.53498C21.9578 7.16789 21.8758 8.18055 21.8088 8.79856C21.6301 10.3771 21.6301 10.9877 21.8088 11.2483L21.9429 11.4642L22.196 11.2111L22.4417 10.9579L22.4566 9.72931C22.4566 8.95493 22.5013 8.32202 22.5758 8.01673C22.6353 7.74868 22.6949 7.19767 22.7024 6.78814C22.7098 6.37861 22.7619 5.96908 22.8066 5.87973C22.9257 5.6638 23.6182 5.26171 23.8788 5.26171C24.1543 5.26171 24.5415 5.50743 24.7053 5.77549C24.8245 5.98398 24.8245 6.02121 24.7277 6.2148C24.6681 6.33394 24.4298 6.60199 24.2064 6.81048C23.8341 7.14555 23.7448 7.19023 23.3502 7.2349C22.9257 7.28703 22.9108 7.29447 22.8662 7.54019C22.8289 7.704 22.8587 7.86781 22.9332 8.02418C23.0449 8.22522 23.0821 8.24756 23.2831 8.21033C23.5289 8.16565 24.6234 7.33915 24.9287 6.98174C25.1297 6.74347 25.4276 6.02865 25.4276 5.78293C25.4276 5.16491 24.5415 4.28629 23.9384 4.30118C23.8341 4.30862 23.4172 4.50222 23.0151 4.74794Z" fill="white"/>
<path d="M28.2125 4.54699C28.004 4.64379 27.7359 4.84483 27.6094 5.01609C27.4828 5.17245 27.2892 5.35116 27.1775 5.41072L26.9839 5.51497L27.0211 6.30424C27.0435 6.73611 27.0881 7.85301 27.1254 8.79866C27.1775 10.1762 27.2147 10.5931 27.3338 10.9208C27.4977 11.3899 27.654 11.4643 27.8476 11.1665C27.9742 10.9729 27.9742 10.9431 27.8551 10.4889C27.6764 9.8262 27.6168 8.61251 27.7508 8.44869C27.8327 8.337 28.4582 8.07639 28.8975 7.9647C29.24 7.8828 30.007 8.86567 30.3346 9.8262C30.4165 10.057 30.5133 10.2953 30.5431 10.3474C30.5729 10.3921 30.6697 10.6378 30.7516 10.8835C31.0122 11.6579 31.3845 11.5016 31.3845 10.6304C31.3845 10.1985 31.3324 10.0198 30.9452 9.11883C30.4463 7.9647 30.1782 7.54028 29.7464 7.19777C29.4187 6.93715 29.3964 6.85525 29.5528 6.50529C30.007 5.50752 29.9921 4.72569 29.5155 4.47997C29.2028 4.31616 28.6518 4.34595 28.2125 4.54699ZM29.2251 5.38094C29.3443 5.7309 29.2773 6.17766 29.0837 6.37126C29.0018 6.45316 28.7188 6.60953 28.4656 6.71377C28.2125 6.81802 27.9519 6.95205 27.8774 7.01906C27.7583 7.12331 27.7434 7.12331 27.7136 6.99672C27.5274 6.34147 27.6168 5.99151 28.0561 5.56709C28.3986 5.23947 28.6146 5.12778 28.905 5.12033C29.1134 5.11288 29.1507 5.14267 29.2251 5.38094Z" fill="white"/>
<path d="M53.8344 4.73309C53.7525 4.76288 53.5365 4.85223 53.3504 4.94158C52.7845 5.19474 52.7026 5.69363 53.2461 5.59683C53.6631 5.52237 53.6855 5.58938 53.7078 6.92966C53.7376 8.15825 53.5812 10.0793 53.4174 10.608C53.3653 10.7495 53.2536 10.8909 53.1196 10.9579C52.8738 11.0845 52.7696 11.3898 52.9036 11.5536C53.0079 11.6802 53.8344 11.71 53.9088 11.5983C53.9312 11.5611 54.1397 11.4866 54.3779 11.4419C54.8843 11.3451 55.0332 11.2781 55.6065 10.8909C56.4256 10.3325 56.7085 10.0346 57.0064 9.38684C57.4159 8.50077 57.468 8.2476 57.3638 7.6966C57.2447 7.08603 56.9766 6.43823 56.6192 5.92445C56.3735 5.58194 56.2245 5.4628 55.7852 5.23942C54.9289 4.815 54.1695 4.6214 53.8344 4.73309ZM55.063 5.74575C55.1225 5.79787 55.3161 5.90956 55.4874 5.99891C55.8671 6.18506 56.0161 6.37866 56.3735 7.10837C56.7309 7.83807 56.7756 8.27739 56.5522 8.88796C56.232 9.78148 55.3459 10.5782 54.5194 10.7346L54.2365 10.7867L54.2811 9.64745C54.3035 9.01454 54.3556 8.23271 54.3854 7.90509C54.4226 7.57746 54.445 6.95945 54.4301 6.52758C54.4003 5.50748 54.4077 5.47025 54.713 5.57449C54.847 5.61917 55.0034 5.69363 55.063 5.74575Z" fill="white"/>
<path d="M69.2702 4.71822C69.0766 4.76289 69.099 5.26922 69.3075 5.90213C69.4564 6.35634 69.4713 6.55738 69.4638 7.71896C69.4564 8.96244 69.3745 9.58046 69.2107 9.58046C69.1213 9.58046 68.7267 8.73906 68.615 8.31464C68.5629 8.13593 68.4363 7.80086 68.3172 7.57004C68.2055 7.34666 68.0863 7.0786 68.0565 6.97436C67.9821 6.73609 67.3566 5.64152 67.1779 5.44793C67.0513 5.30645 67.0439 5.30645 66.7907 5.44048L66.5301 5.58196V6.29677C66.5301 6.69141 66.4631 7.46579 66.3812 8.0168C66.1429 9.57301 66.0908 10.3325 66.1653 10.9356C66.2918 11.9781 66.4631 12.2015 66.8428 11.8366C67.1779 11.5164 67.2524 11.1441 67.0886 10.6527C66.9769 10.3102 66.962 10.1091 66.9992 9.30496C67.0439 8.35931 67.163 7.51047 67.2673 7.40623C67.2896 7.37644 67.4311 7.6445 67.5726 8.00191C68.198 9.6028 68.9575 11.0846 69.1958 11.1813C69.3447 11.2335 69.6574 11.0622 69.8287 10.8388C70.0223 10.5633 70.1191 9.12625 70.0893 6.86267C70.067 5.38836 70.0446 5.11286 69.9329 4.90437C69.7989 4.6661 69.6425 4.62142 69.2702 4.71822Z" fill="white"/>
</svg>
