<svg width="82" height="33" viewBox="0 0 82 33" fill="none" xmlns="http://www.w3.org/2000/svg">
<path d="M0 11.7078V23.1178L6.89617 27.7123L13.7923 32.3068L20.6885 27.7123L27.5847 23.1178V11.7078V0.306764H22.6409H17.6882L15.7448 2.25023L13.7923 4.20265L11.8399 2.25023L9.89645 0.306764H4.94375H0V11.7078ZM11.4817 4.22056L13.7923 6.53123L16.103 4.22056L18.4047 1.91885L22.1662 1.93677L25.9278 1.96364L25.9547 12.0929L25.9726 22.2222L19.8825 26.2793L13.7923 30.3364L7.81864 26.3599C4.54072 24.1747 1.80017 22.3297 1.72852 22.267C1.63 22.1685 1.61209 20.3773 1.61209 12.0929C1.61209 6.56705 1.63896 2.00842 1.67478 1.98155C1.70165 1.94572 3.4033 1.91885 5.45424 1.91885H9.17996L11.4817 4.22056Z" fill="#0029B7"/>
<path d="M5.76797 4.80283C5.61572 4.85657 5.2933 5.04465 5.05149 5.22377C3.7439 6.20893 3.7439 8.28674 5.05149 9.27191C5.28435 9.45103 5.63363 9.6391 5.82171 9.7018C6.24265 9.82718 7.16512 9.82718 7.48754 9.71075C7.72935 9.61224 7.80996 9.68388 10.3624 12.2364L12.9866 14.8605V18.3175V21.7835L12.7537 21.8373C12.6194 21.8731 12.279 22.1328 11.9924 22.4194C11.5805 22.8314 11.4461 23.0463 11.3297 23.4583C10.9625 24.6942 11.4999 25.957 12.6552 26.5661C13.1925 26.8616 14.3927 26.8616 14.93 26.5661C16.4705 25.7511 16.8556 23.7986 15.7182 22.5358C15.4943 22.2851 15.145 22.0074 14.9569 21.9268L14.5986 21.7656V18.3175V14.8605L17.2228 12.2364C19.7753 9.68388 19.8559 9.61224 20.0977 9.71075C20.4201 9.82718 21.3426 9.82718 21.7635 9.7018C21.9516 9.6391 22.3009 9.45103 22.5337 9.27191C23.7428 8.36734 23.8503 6.51344 22.7755 5.43871C22.274 4.93717 21.8351 4.7491 21.0381 4.71327C20.1604 4.66849 19.5961 4.89239 19.0409 5.51036C18.396 6.22685 18.19 7.22992 18.4945 8.10762L18.6378 8.49273L16.2107 10.9198L13.7926 13.338L11.3745 10.9198L8.94738 8.49273L9.09067 8.10762C9.39518 7.23888 9.18919 6.24476 8.57122 5.53723C8.05177 4.95508 7.46963 4.69536 6.67254 4.70432C6.33221 4.71327 5.92023 4.75805 5.76797 4.80283ZM7.29946 6.25371C7.99803 6.71047 8.00699 7.77624 7.30842 8.233C6.2516 8.92262 4.97984 7.68668 5.64259 6.62091C5.98292 6.06564 6.75314 5.89547 7.29946 6.25371ZM21.4859 6.19998C21.8441 6.38805 22.1217 6.85377 22.1217 7.24784C22.1217 7.91954 21.4859 8.50168 20.841 8.42108C20.1783 8.34048 19.7663 7.89267 19.7663 7.23888C19.7663 6.76421 19.9812 6.42388 20.429 6.19998C20.8231 5.99399 21.1097 5.99399 21.4859 6.19998ZM14.33 23.1896C14.7509 23.4135 14.9569 23.7449 14.9569 24.2285C14.9569 24.5868 14.9121 24.7211 14.6793 24.9719C14.527 25.151 14.2673 25.3301 14.0971 25.3749C13.6672 25.4913 13.2373 25.348 12.906 24.9719C12.5298 24.5509 12.5119 23.924 12.8701 23.5031C12.9955 23.3419 13.1925 23.1807 13.2911 23.1448C13.5866 23.0195 14.0434 23.0463 14.33 23.1896Z" fill="#0029B7"/>
<path d="M20.2314 14.6364C19.1208 14.7708 18.1177 15.4873 17.6162 16.5082C17.3475 17.0635 17.3296 17.1531 17.3296 18.0845C17.3296 19.0249 17.3475 19.1055 17.6251 19.6697C18.4581 21.3714 20.5986 22.0252 22.4345 21.1296C23.2764 20.7265 23.2675 20.7355 22.8286 20.028L22.4435 19.41L22.0584 19.6876C21.7181 19.9205 21.5658 19.9653 21.0195 19.9921C20.4553 20.019 20.312 19.9921 19.8821 19.7682C19.4701 19.5623 19.3447 19.4369 19.1387 19.0249C18.682 18.1293 18.9059 17.0546 19.685 16.4635C20.3567 15.944 21.2523 15.9709 21.9599 16.5262L22.2823 16.7769L22.7838 16.2127L23.2764 15.6485L23.0794 15.4693C22.336 14.7887 21.3598 14.5021 20.2314 14.6364Z" fill="#0029B7"/>
<path d="M4.92627 18.0845V21.443H7.34441H9.76254V20.7713V20.0996H8.15045H6.53836V19.3831V18.6666H7.88177H9.22518V18.0397V17.4217L7.90864 17.3949L6.58314 17.368L6.55627 16.7142L6.5294 16.0694H8.10567H9.67298V15.3977V14.7259H7.29963H4.92627V18.0845Z" fill="#0029B7"/>
<path d="M41.5734 24.0416V17.7211L42.3911 19.8869L35.5845 8.57196H39.3856L44.601 17.257H42.4132L47.6508 8.57196H51.1646L44.358 19.8869L45.1535 17.7211V24.0416H41.5734Z" fill="white"/>
<path d="M55.8258 14.804H63.2734V17.5885H55.8258V14.804ZM56.091 21.1686H64.5109V24.0416H52.533V8.57196H64.2236V11.4449H56.091V21.1686Z" fill="white"/>
<path d="M74.7628 24.3068C73.5695 24.3068 72.4571 24.1152 71.4258 23.7322C70.4092 23.3344 69.5253 22.7745 68.7739 22.0526C68.0225 21.3307 67.4332 20.4836 67.0059 19.5112C66.5934 18.5388 66.3871 17.4707 66.3871 16.3068C66.3871 15.1429 66.5934 14.0747 67.0059 13.1023C67.4332 12.13 68.0225 11.2828 68.7739 10.5609C69.54 9.83899 70.4313 9.2865 71.4479 8.90345C72.4645 8.50566 73.5768 8.30676 74.7849 8.30676C76.1256 8.30676 77.3337 8.54249 78.4092 9.01395C79.4995 9.47067 80.4129 10.1484 81.1496 11.0471L78.8512 13.1686C78.3208 12.5646 77.7315 12.1152 77.0833 11.8206C76.435 11.5112 75.7278 11.3565 74.9617 11.3565C74.2398 11.3565 73.5768 11.4744 72.9728 11.7101C72.3687 11.9458 71.8457 12.2847 71.4037 12.7267C70.9617 13.1686 70.6155 13.6917 70.365 14.2957C70.1293 14.8998 70.0114 15.5701 70.0114 16.3068C70.0114 17.0434 70.1293 17.7138 70.365 18.3178C70.6155 18.9219 70.9617 19.4449 71.4037 19.8869C71.8457 20.3289 72.3687 20.6677 72.9728 20.9034C73.5768 21.1392 74.2398 21.257 74.9617 21.257C75.7278 21.257 76.435 21.1097 77.0833 20.8151C77.7315 20.5057 78.3208 20.0416 78.8512 19.4228L81.1496 21.5443C80.4129 22.443 79.4995 23.1281 78.4092 23.5996C77.3337 24.071 76.1183 24.3068 74.7628 24.3068Z" fill="white"/>
</svg>
