<svg width="276" height="48" viewBox="0 0 276 48" fill="none" xmlns="http://www.w3.org/2000/svg">
<path fill-rule="evenodd" clip-rule="evenodd" d="M14.7031 48C22.8234 48 29.4062 41.4172 29.4062 33.2969C29.4062 25.1766 22.8234 18.5938 14.7031 18.5938C6.5828 18.5938 0 25.1766 0 33.2969C0 41.4172 6.5828 48 14.7031 48ZM14.7026 41.3315C19.14 41.3315 22.7372 37.7343 22.7372 33.2969C22.7372 28.8595 19.14 25.2623 14.7026 25.2623C10.2652 25.2623 6.668 28.8595 6.668 33.2969C6.668 37.7343 10.2652 41.3315 14.7026 41.3315Z" fill="white"/>
<path d="M18.4324 9.89141C23.4769 10.7809 28.1102 13.2445 31.6684 16.9291C35.2266 20.6138 37.527 25.3303 38.2399 30.4027L32.3947 31.2242C31.8553 27.3861 30.1147 23.8174 27.4224 21.0294C24.7301 18.2415 21.2243 16.3774 17.4074 15.7044L18.4324 9.89141Z" fill="#6969FF" fill-opacity="0.5"/>
<path d="M15.3845 0C19.6678 5.10775e-08 23.9091 0.843654 27.8663 2.48279C31.8236 4.12193 35.4192 6.52445 38.4479 9.55319C41.4767 12.5819 43.8792 16.1775 45.5183 20.1348C47.1575 24.092 48.0011 28.3333 48.0011 32.6166H41.4778C41.4778 29.19 40.8029 25.7969 39.4916 22.6311C38.1803 19.4654 36.2582 16.5889 33.8352 14.1659C31.4123 11.7429 28.5358 9.82086 25.37 8.50955C22.2042 7.19824 18.8111 6.52332 15.3845 6.52332V0Z" fill="#6969FF" fill-opacity="0.25"/>
<path d="M69.1295 15.2482V19.5068H75.0182C74.4607 20.775 74.248 22.0608 74.3313 23.4656H69.1295V28.0842H74.8213C75.3799 29.8991 76.4919 31.3496 78.0279 32.1929H64.0011V11.1394H76.8971V15.2482H69.1295Z" fill="white"/>
<path d="M75.4422 23.8941C75.4422 22.1546 75.7921 20.6351 76.4919 19.3355C77.2117 18.0359 78.2014 17.0362 79.461 16.3364C80.7406 15.6366 82.2001 15.2867 83.8396 15.2867C85.939 15.2867 87.6884 15.8366 89.088 16.9362C90.5075 18.0359 91.4372 19.5854 91.8771 21.5848H86.4188C85.9589 20.3052 85.0692 19.6654 83.7496 19.6654C82.8099 19.6654 82.0602 20.0353 81.5004 20.775C80.9405 21.4948 80.6606 22.5345 80.6606 23.8941C80.6606 25.2536 80.9405 26.3033 81.5004 27.0431C82.0602 27.7628 82.8099 28.1227 83.7496 28.1227C85.0692 28.1227 85.9589 27.4829 86.4188 26.2033H91.8771C91.4372 28.1627 90.5075 29.7023 89.088 30.8219C87.6684 31.9416 85.919 32.5014 83.8396 32.5014C82.2001 32.5014 80.7406 32.1515 79.461 31.4517C78.2014 30.7519 77.2117 29.7522 76.4919 28.4526C75.7921 27.153 75.4422 25.6335 75.4422 23.8941Z" fill="white"/>
<path d="M103.641 15.2782C105.56 15.2782 107.1 15.918 108.26 17.1976C109.419 18.4572 109.999 20.1966 109.999 22.4159V32.1929H104.901V23.1057C104.901 21.9861 104.611 21.1163 104.031 20.4965C103.451 19.8767 102.671 19.5668 101.692 19.5668C100.712 19.5668 99.9321 19.8767 99.3523 20.4965C98.7725 21.1163 98.4826 21.9861 98.4826 23.1057V32.1929H93.3542V9.9998H98.4826V17.7074C99.0024 16.9676 99.7122 16.3778 100.612 15.938C101.512 15.4981 102.521 15.2782 103.641 15.2782Z" fill="white"/>
<path d="M150.65 17.627C150.27 16.9272 149.721 16.3974 149.001 16.0375C148.301 15.6576 147.471 15.4677 146.512 15.4677C144.852 15.4677 143.523 16.0175 142.523 17.1172C141.523 18.1968 141.023 19.6464 141.023 21.4658C141.023 23.4052 141.543 24.9247 142.583 26.0244C143.642 27.104 145.092 27.6439 146.931 27.6439C148.191 27.6439 149.251 27.324 150.11 26.6842C150.99 26.0444 151.63 25.1247 152.03 23.925H145.522V20.1462H156.678V24.9147C156.299 26.1943 155.649 27.3839 154.729 28.4836C153.829 29.5833 152.68 30.473 151.28 31.1528C149.881 31.8326 148.301 32.1725 146.542 32.1725C144.462 32.1725 142.603 31.7226 140.963 30.8229C139.344 29.9032 138.074 28.6336 137.154 27.0141C136.255 25.3946 135.805 23.5451 135.805 21.4658C135.805 19.3864 136.255 17.537 137.154 15.9175C138.074 14.278 139.344 13.0084 140.963 12.1087C142.583 11.189 144.432 10.7291 146.512 10.7291C149.031 10.7291 151.15 11.339 152.87 12.5586C154.609 13.7782 155.759 15.4677 156.318 17.627H150.65Z" fill="white"/>
<path d="M174.716 23.3852C174.716 23.865 174.687 24.3649 174.627 24.8847H163.02C163.1 25.9244 163.43 26.7241 164.01 27.284C164.61 27.8238 165.339 28.0937 166.199 28.0937C167.479 28.0937 168.369 27.5539 168.868 26.4742H174.327C174.047 27.5739 173.537 28.5636 172.797 29.4433C172.077 30.323 171.168 31.0128 170.068 31.5127C168.968 32.0125 167.739 32.2624 166.379 32.2624C164.74 32.2624 163.28 31.9125 162 31.2128C160.721 30.513 159.721 29.5133 159.001 28.2137C158.282 26.9141 157.922 25.3946 157.922 23.6551C157.922 21.9157 158.272 20.3961 158.971 19.0965C159.691 17.7969 160.691 16.7973 161.97 16.0975C163.25 15.3977 164.72 15.0478 166.379 15.0478C167.999 15.0478 169.438 15.3877 170.698 16.0675C171.957 16.7473 172.937 17.717 173.637 18.9766C174.357 20.2362 174.716 21.7057 174.716 23.3852ZM169.468 22.0356C169.468 21.1559 169.168 20.4561 168.568 19.9363C167.969 19.4164 167.219 19.1565 166.319 19.1565C165.459 19.1565 164.73 19.4064 164.13 19.9063C163.55 20.4061 163.19 21.1159 163.05 22.0356H169.468Z" fill="white"/>
<path d="M186.232 15.1078C188.192 15.1078 189.751 15.7476 190.911 17.0272C192.091 18.2868 192.68 20.0262 192.68 22.2456V32.0225H187.582V22.9353C187.582 21.8157 187.292 20.946 186.712 20.3262C186.133 19.7063 185.353 19.3964 184.373 19.3964C183.393 19.3964 182.614 19.7063 182.034 20.3262C181.454 20.946 181.164 21.8157 181.164 22.9353V32.0225H176.036V15.2877H181.164V17.507C181.684 16.7673 182.384 16.1874 183.263 15.7676C184.143 15.3277 185.133 15.1078 186.232 15.1078Z" fill="white"/>
<path d="M211.095 23.3852C211.095 23.865 211.065 24.3649 211.005 24.8847H199.399C199.479 25.9244 199.809 26.7241 200.388 27.284C200.988 27.8238 201.718 28.0937 202.578 28.0937C203.857 28.0937 204.747 27.5539 205.247 26.4742H210.705C210.425 27.5739 209.915 28.5636 209.176 29.4433C208.456 30.323 207.546 31.0128 206.446 31.5127C205.347 32.0125 204.117 32.2624 202.758 32.2624C201.118 32.2624 199.659 31.9125 198.379 31.2128C197.099 30.513 196.1 29.5133 195.38 28.2137C194.66 26.9141 194.3 25.3946 194.3 23.6551C194.3 21.9157 194.65 20.3961 195.35 19.0965C196.07 17.7969 197.069 16.7973 198.349 16.0975C199.629 15.3977 201.098 15.0478 202.758 15.0478C204.377 15.0478 205.817 15.3877 207.076 16.0675C208.336 16.7473 209.316 17.717 210.015 18.9766C210.735 20.2362 211.095 21.7057 211.095 23.3852ZM205.847 22.0356C205.847 21.1559 205.547 20.4561 204.947 19.9363C204.347 19.4164 203.597 19.1565 202.698 19.1565C201.838 19.1565 201.108 19.4064 200.508 19.9063C199.929 20.4061 199.569 21.1159 199.429 22.0356H205.847Z" fill="white"/>
<path d="M218.236 18.0769C218.836 17.1571 219.585 16.4374 220.485 15.9175C221.785 15.1663 224.201 14.8022 226.375 15.0478C224.019 16.3267 222.736 18.8283 222.519 20.5214C221.032 20.2927 219.835 20.816 219.195 21.3758C218.556 21.9157 218.236 22.8754 218.236 24.2549V32.0225H213.107V15.2877H218.236V18.0769Z" fill="white"/>
<path d="M223.794 23.6251C223.794 21.9057 224.114 20.3961 224.754 19.0965C225.414 17.7969 226.304 16.7973 227.423 16.0975C228.543 15.3977 229.793 15.0478 231.172 15.0478C232.352 15.0478 233.381 15.2877 234.261 15.7676C235.161 16.2474 235.851 16.8772 236.331 17.657V15.2877H241.459V32.0225H236.331V29.6532C235.831 30.433 235.131 31.0628 234.231 31.5426C233.351 32.0225 232.322 32.2624 231.142 32.2624C229.783 32.2624 228.543 31.9125 227.423 31.2128C226.304 30.493 225.414 29.4833 224.754 28.1837C224.114 26.8641 223.794 25.3446 223.794 23.6251ZM236.331 23.6551C236.331 22.3755 235.971 21.3658 235.251 20.6261C234.551 19.8863 233.691 19.5164 232.672 19.5164C231.652 19.5164 230.782 19.8863 230.063 20.6261C229.363 21.3458 229.013 22.3455 229.013 23.6251C229.013 24.9047 229.363 25.9244 230.063 26.6842C230.782 27.4239 231.652 27.7938 232.672 27.7938C233.691 27.7938 234.551 27.4239 235.251 26.6842C235.971 25.9444 236.331 24.9347 236.331 23.6551Z" fill="white"/>
<path d="M243.055 23.6551C243.055 21.9157 243.405 20.3961 244.105 19.0965C244.824 17.7969 245.814 16.7973 247.074 16.0975C248.353 15.3977 249.813 15.0478 251.452 15.0478C253.552 15.0478 255.301 15.5976 256.701 16.6973C258.12 17.7969 259.05 19.3465 259.49 21.3458H254.031C253.572 20.0662 252.682 19.4264 251.362 19.4264C250.423 19.4264 249.673 19.7963 249.113 20.5361C248.553 21.2559 248.273 22.2955 248.273 23.6551C248.273 25.0147 248.553 26.0644 249.113 26.8041C249.673 27.5239 250.423 27.8838 251.362 27.8838C252.682 27.8838 253.572 27.244 254.031 25.9644H259.49C259.05 27.9238 258.12 29.4633 256.701 30.5829C255.281 31.7026 253.532 32.2624 251.452 32.2624C249.813 32.2624 248.353 31.9125 247.074 31.2128C245.814 30.513 244.824 29.5133 244.105 28.2137C243.405 26.9141 243.055 25.3946 243.055 23.6551Z" fill="white"/>
<path d="M264.944 13.5483C264.044 13.5483 263.305 13.2883 262.725 12.7685C262.165 12.2287 261.885 11.5689 261.885 10.7891C261.885 9.98938 262.165 9.32959 262.725 8.80975C263.305 8.26992 264.044 8 264.944 8C265.824 8 266.544 8.26992 267.103 8.80975C267.683 9.32959 267.973 9.98938 267.973 10.7891C267.973 11.5689 267.683 12.2287 267.103 12.7685C266.544 13.2883 265.824 13.5483 264.944 13.5483ZM267.523 34.1818C267.523 36.2412 267.003 37.7207 265.964 38.6204C264.924 39.5402 263.475 40 261.615 40H259.606V35.6514H260.835C261.395 35.6514 261.795 35.5414 262.035 35.3215C262.275 35.1015 262.395 34.7416 262.395 34.2418V15.2877H267.523V34.1818Z" fill="white"/>
<path d="M272.925 13.5483C272.026 13.5483 271.286 13.2883 270.706 12.7685C270.146 12.2287 269.866 11.5689 269.866 10.7891C269.866 9.98938 270.146 9.32959 270.706 8.80975C271.286 8.26992 272.026 8 272.925 8C273.805 8 274.525 8.26992 275.085 8.80975C275.665 9.32959 275.954 9.98938 275.954 10.7891C275.954 11.5689 275.665 12.2287 275.085 12.7685C274.525 13.2883 273.805 13.5483 272.925 13.5483ZM275.475 15.2877V32.0225H270.346V15.2877H275.475Z" fill="white"/>
<path d="M119.705 32.4689C118.072 32.4689 116.599 32.1204 115.284 31.4235C113.99 30.7265 112.965 29.7308 112.208 28.4365C111.471 27.1422 111.103 25.6288 111.103 23.8963C111.103 22.1838 111.481 20.6804 112.238 19.386C112.994 18.0718 114.03 17.0662 115.344 16.3692C116.658 15.6723 118.132 15.3238 119.765 15.3238C121.398 15.3238 122.871 15.6723 124.186 16.3692C125.5 17.0662 126.535 18.0718 127.292 19.386C128.049 20.6804 128.427 22.1838 128.427 23.8963C128.427 25.6089 128.039 27.1222 127.262 28.4365C126.505 29.7308 125.46 30.7265 124.126 31.4235C122.812 32.1204 121.338 32.4689 119.705 32.4689ZM119.705 28.0482C120.681 28.0482 121.507 27.6898 122.184 26.9729C122.881 26.256 123.23 25.2305 123.23 23.8963C123.23 22.5622 122.891 21.5366 122.214 20.8198C121.557 20.1029 120.741 19.7445 119.765 19.7445C118.769 19.7445 117.943 20.1029 117.286 20.8198C116.629 21.5167 116.3 22.5423 116.3 23.8963C116.3 25.2305 116.619 26.256 117.256 26.9729C117.913 27.6898 118.729 28.0482 119.705 28.0482Z" fill="white"/>
</svg>
