<svg width="36" height="32" viewBox="0 0 36 32" fill="none" xmlns="http://www.w3.org/2000/svg">
<g clip-path="url(#clip0_1_725)">
<path d="M36 15C36 13.5231 35.1906 12.2475 34 11.555V2.00062C34 1.45375 33.5638 0 32 0C31.555 0 31.1131 0.14875 30.7512 0.43875L25.4369 4.69063C22.7675 6.82438 19.4162 8 16 8H4C1.79063 8 0 9.79063 0 12V18C0 20.2094 1.79063 22 4 22H6.10625C6.01937 22.655 5.97 23.3213 5.97 24C5.97 26.4856 6.54875 28.8344 7.5675 30.9338C7.89188 31.6019 8.6 32 9.3425 32H13.985C15.6131 32 16.5906 30.135 15.6038 28.84C14.5788 27.495 13.9694 25.8175 13.9694 24C13.9694 23.3056 14.0706 22.6381 14.245 22H16C19.4162 22 22.7675 23.1756 25.4363 25.3094L30.7506 29.5613C31.1051 29.8449 31.5454 29.9996 31.9994 30C33.5569 30 33.9994 28.5763 33.9994 28V18.4456C35.1906 17.7525 36 16.4769 36 15ZM30 23.8388L27.9344 22.1863C24.5594 19.4863 20.32 18 16 18V12C20.32 12 24.5594 10.5137 27.9344 7.81375L30 6.16125V23.8388Z" fill="#42419D"/>
</g>
<defs>
<clipPath id="clip0_1_725">
<rect width="36" height="32" fill="white"/>
</clipPath>
</defs>
</svg>
