<svg width="40" height="32" viewBox="0 0 40 32" fill="none" xmlns="http://www.w3.org/2000/svg">
<path d="M6 14C8.20625 14 10 12.2062 10 10C10 7.79375 8.20625 6 6 6C3.79375 6 2 7.79375 2 10C2 12.2062 3.79375 14 6 14ZM34 14C36.2062 14 38 12.2062 38 10C38 7.79375 36.2062 6 34 6C31.7938 6 30 7.79375 30 10C30 12.2062 31.7938 14 34 14ZM36 16H32C30.9 16 29.9062 16.4438 29.1812 17.1625C31.7 18.5438 33.4875 21.0375 33.875 24H38C39.1063 24 40 23.1063 40 22V20C40 17.7938 38.2062 16 36 16ZM20 16C23.8688 16 27 12.8688 27 9C27 5.13125 23.8688 2 20 2C16.1312 2 13 5.13125 13 9C13 12.8688 16.1312 16 20 16ZM24.8 18H24.2812C22.9813 18.625 21.5375 19 20 19C18.4625 19 17.025 18.625 15.7188 18H15.2C11.225 18 8 21.225 8 25.2V27C8 28.6562 9.34375 30 11 30H29C30.6562 30 32 28.6562 32 27V25.2C32 21.225 28.775 18 24.8 18ZM10.8188 17.1625C10.0938 16.4438 9.1 16 8 16H4C1.79375 16 0 17.7938 0 20V22C0 23.1063 0.89375 24 2 24H6.11875C6.5125 21.0375 8.3 18.5438 10.8188 17.1625Z" fill="#42419D"/>
</svg>
