<svg width="31" height="32" viewBox="0 0 31 32" fill="none" xmlns="http://www.w3.org/2000/svg">
<g clip-path="url(#clip0_1_730)">
<path d="M15.5 0.5C6.93937 0.5 0 7.43937 0 16C0 24.5606 6.93937 31.5 15.5 31.5C24.0606 31.5 31 24.5606 31 16C31 7.43937 24.0606 0.5 15.5 0.5ZM15.5 27.5C9.14437 27.5 4 22.3569 4 16C4 9.64437 9.14313 4.5 15.5 4.5C21.8556 4.5 27 9.64313 27 16C27 22.3556 21.8569 27.5 15.5 27.5ZM15.5 8C11.0819 8 7.5 11.5819 7.5 16C7.5 20.4181 11.0819 24 15.5 24C19.9181 24 23.5 20.4181 23.5 16C23.5 11.5819 19.9181 8 15.5 8ZM15.5 20C13.2944 20 11.5 18.2056 11.5 16C11.5 13.7944 13.2944 12 15.5 12C17.7056 12 19.5 13.7944 19.5 16C19.5 18.2056 17.7056 20 15.5 20Z" fill="#42419D"/>
</g>
<defs>
<clipPath id="clip0_1_730">
<rect width="31" height="32" fill="white"/>
</clipPath>
</defs>
</svg>
