<svg width="184" height="32" viewBox="0 0 184 32" fill="none" xmlns="http://www.w3.org/2000/svg">
<path fill-rule="evenodd" clip-rule="evenodd" d="M9.80207 32C15.2156 32 19.6041 27.6115 19.6041 22.1979C19.6041 16.7844 15.2156 12.3959 9.80207 12.3959C4.38854 12.3959 0 16.7844 0 22.1979C0 27.6115 4.38854 32 9.80207 32ZM9.80175 27.5543C12.76 27.5543 15.1582 25.1562 15.1582 22.1979C15.1582 19.2397 12.76 16.8415 9.80175 16.8415C6.84348 16.8415 4.44533 19.2397 4.44533 22.1979C4.44533 25.1562 6.84348 27.5543 9.80175 27.5543Z" fill="white"/>
<path d="M12.2883 6.59428C15.6512 7.18726 18.7401 8.82966 21.1123 11.2861C23.4844 13.7425 25.018 16.8869 25.4933 20.2685L21.5965 20.8161C21.2369 18.2574 20.0765 15.8783 18.2816 14.0196C16.4867 12.161 14.1495 10.9183 11.605 10.4696L12.2883 6.59428Z" fill="white" fill-opacity="0.5"/>
<path d="M10.2563 0C13.1119 3.40517e-08 15.9394 0.562436 18.5776 1.65519C21.2157 2.74795 23.6128 4.34964 25.632 6.36879C27.6511 8.38795 29.2528 10.785 30.3456 13.4232C31.4383 16.0613 32.0007 18.8889 32.0007 21.7444H27.6519C27.6519 19.46 27.2019 17.198 26.3277 15.0874C25.4535 12.9769 24.1722 11.0592 22.5568 9.44391C20.9415 7.82859 19.0238 6.54724 16.9133 5.67304C14.8028 4.79883 12.5407 4.34888 10.2563 4.34888V0Z" fill="white" fill-opacity="0.25"/>
<path d="M46.0864 10.1654V13.0045H50.0121C49.6405 13.85 49.4987 14.7072 49.5542 15.6437H46.0864V18.7228H49.8809C50.2533 19.9327 50.9946 20.8997 52.0186 21.4619H42.6674V7.42628H51.2647V10.1654H46.0864Z" fill="white"/>
<path d="M50.2948 15.9293C50.2948 14.7697 50.5281 13.7567 50.9946 12.8903C51.4745 12.0239 52.1343 11.3574 52.974 10.8909C53.8271 10.4244 54.8001 10.1911 55.8931 10.1911C57.2927 10.1911 58.459 10.5577 59.392 11.2908C60.3384 12.0239 60.9582 13.0569 61.2514 14.3898H57.6126C57.306 13.5368 56.7128 13.1102 55.8331 13.1102C55.2066 13.1102 54.7068 13.3568 54.3336 13.85C53.9604 14.3299 53.7738 15.023 53.7738 15.9293C53.7738 16.8357 53.9604 17.5355 54.3336 18.0287C54.7068 18.5085 55.2066 18.7485 55.8331 18.7485C56.7128 18.7485 57.306 18.3219 57.6126 17.4689H61.2514C60.9582 18.7751 60.3384 19.8015 59.392 20.5479C58.4456 21.2944 57.2793 21.6676 55.8931 21.6676C54.8001 21.6676 53.8271 21.4343 52.974 20.9678C52.1343 20.5013 51.4745 19.8348 50.9946 18.9684C50.5281 18.102 50.2948 17.089 50.2948 15.9293Z" fill="white"/>
<path d="M69.094 10.1854C70.3736 10.1854 71.3999 10.612 72.173 11.465C72.9461 12.3048 73.3327 13.4644 73.3327 14.9439V21.4619H69.9337V15.4038C69.9337 14.6574 69.7405 14.0775 69.3539 13.6643C68.9674 13.2511 68.4475 13.0445 67.7944 13.0445C67.1413 13.0445 66.6214 13.2511 66.2349 13.6643C65.8483 14.0775 65.6551 14.6574 65.6551 15.4038V21.4619H62.2361V6.66652H65.6551V11.8049C66.0016 11.3117 66.4748 10.9185 67.0746 10.6253C67.6744 10.332 68.3476 10.1854 69.094 10.1854Z" fill="white"/>
<path d="M100.434 11.7513C100.18 11.2848 99.8137 10.9316 99.3339 10.6916C98.8674 10.4384 98.3142 10.3118 97.6744 10.3118C96.5681 10.3118 95.6817 10.6783 95.0152 11.4114C94.3488 12.1312 94.0156 13.0976 94.0156 14.3105C94.0156 15.6034 94.3621 16.6165 95.0552 17.3496C95.7617 18.0693 96.728 18.4292 97.9543 18.4292C98.794 18.4292 99.5005 18.216 100.074 17.7894C100.66 17.3629 101.087 16.7497 101.353 15.95H97.0146V13.4308H104.452V16.6098C104.199 17.4629 103.766 18.2559 103.153 18.989C102.553 19.7221 101.786 20.3153 100.853 20.7685C99.9204 21.2217 98.8674 21.4483 97.6944 21.4483C96.3082 21.4483 95.0685 21.1484 93.9756 20.5486C92.8959 19.9354 92.0495 19.089 91.4364 18.0094C90.8365 16.9297 90.5366 15.6967 90.5366 14.3105C90.5366 12.9243 90.8365 11.6913 91.4364 10.6117C92.0495 9.51867 92.8959 8.67227 93.9756 8.07246C95.0552 7.45931 96.2882 7.15274 97.6744 7.15274C99.3539 7.15274 100.767 7.55928 101.913 8.37236C103.073 9.18544 103.839 10.3118 104.212 11.7513H100.434Z" fill="white"/>
<path d="M116.478 15.5901C116.478 15.91 116.458 16.2432 116.418 16.5898H108.68C108.733 17.2829 108.953 17.8161 109.34 18.1893C109.74 18.5492 110.226 18.7291 110.799 18.7291C111.653 18.7291 112.246 18.3692 112.579 17.6495H116.218C116.031 18.3826 115.691 19.0424 115.198 19.6288C114.718 20.2153 114.112 20.6752 113.379 21.0084C112.646 21.3416 111.826 21.5083 110.919 21.5083C109.826 21.5083 108.853 21.275 108 20.8085C107.147 20.342 106.481 19.6755 106.001 18.8091C105.521 17.9427 105.281 16.9297 105.281 15.7701C105.281 14.6104 105.514 13.5974 105.981 12.731C106.461 11.8646 107.127 11.1981 107.98 10.7316C108.833 10.2651 109.813 10.0318 110.919 10.0318C111.999 10.0318 112.959 10.2584 113.799 10.7116C114.638 11.1648 115.291 11.8113 115.758 12.651C116.238 13.4908 116.478 14.4705 116.478 15.5901ZM112.979 14.6904C112.979 14.1039 112.779 13.6374 112.379 13.2908C111.979 12.9443 111.479 12.771 110.879 12.771C110.306 12.771 109.82 12.9376 109.42 13.2708C109.033 13.6041 108.793 14.0772 108.7 14.6904H112.979Z" fill="white"/>
<path d="M124.155 10.0718C125.461 10.0718 126.501 10.4984 127.274 11.3514C128.06 12.1912 128.454 13.3508 128.454 14.8303V21.3483H125.055V15.2902C125.055 14.5438 124.861 13.964 124.475 13.5507C124.088 13.1375 123.569 12.9309 122.915 12.9309C122.262 12.9309 121.742 13.1375 121.356 13.5507C120.969 13.964 120.776 14.5438 120.776 15.2902V21.3483H117.357V10.1918H120.776V11.6713C121.123 11.1782 121.589 10.7916 122.176 10.5117C122.762 10.2185 123.422 10.0718 124.155 10.0718Z" fill="white"/>
<path d="M140.73 15.5901C140.73 15.91 140.71 16.2432 140.67 16.5898H132.933C132.986 17.2829 133.206 17.8161 133.592 18.1893C133.992 18.5492 134.479 18.7291 135.052 18.7291C135.905 18.7291 136.498 18.3692 136.831 17.6495H140.47C140.284 18.3826 139.944 19.0424 139.45 19.6288C138.971 20.2153 138.364 20.6752 137.631 21.0084C136.898 21.3416 136.078 21.5083 135.172 21.5083C134.079 21.5083 133.106 21.275 132.253 20.8085C131.4 20.342 130.733 19.6755 130.253 18.8091C129.773 17.9427 129.534 16.9297 129.534 15.7701C129.534 14.6104 129.767 13.5974 130.233 12.731C130.713 11.8646 131.38 11.1981 132.233 10.7316C133.086 10.2651 134.065 10.0318 135.172 10.0318C136.251 10.0318 137.211 10.2584 138.051 10.7116C138.891 11.1648 139.544 11.8113 140.01 12.651C140.49 13.4908 140.73 14.4705 140.73 15.5901ZM137.231 14.6904C137.231 14.1039 137.031 13.6374 136.631 13.2908C136.231 12.9443 135.732 12.771 135.132 12.771C134.559 12.771 134.072 12.9376 133.672 13.2708C133.286 13.6041 133.046 14.0772 132.952 14.6904H137.231Z" fill="white"/>
<path d="M145.491 12.0512C145.89 11.4381 146.39 10.9582 146.99 10.6117C147.857 10.1109 149.468 9.86813 150.917 10.0318C149.346 10.8844 148.491 12.5522 148.346 13.6809C147.355 13.5284 146.557 13.8773 146.13 14.2505C145.704 14.6104 145.491 15.2502 145.491 16.1699V21.3483H142.072V10.1918H145.491V12.0512Z" fill="white"/>
<path d="M149.196 15.7501C149.196 14.6038 149.41 13.5974 149.836 12.731C150.276 11.8646 150.869 11.1981 151.616 10.7316C152.362 10.2651 153.195 10.0318 154.115 10.0318C154.901 10.0318 155.588 10.1918 156.174 10.5117C156.774 10.8316 157.234 11.2515 157.554 11.7713V10.1918H160.973V21.3483H157.554V19.7688C157.22 20.2886 156.754 20.7085 156.154 21.0284C155.568 21.3483 154.881 21.5083 154.095 21.5083C153.188 21.5083 152.362 21.275 151.616 20.8085C150.869 20.3286 150.276 19.6555 149.836 18.7891C149.41 17.9094 149.196 16.8964 149.196 15.7501ZM157.554 15.7701C157.554 14.917 157.314 14.2439 156.834 13.7507C156.367 13.2575 155.794 13.0109 155.114 13.0109C154.435 13.0109 153.855 13.2575 153.375 13.7507C152.909 14.2305 152.675 14.897 152.675 15.7501C152.675 16.6031 152.909 17.2829 153.375 17.7894C153.855 18.2826 154.435 18.5292 155.114 18.5292C155.794 18.5292 156.367 18.2826 156.834 17.7894C157.314 17.2962 157.554 16.6231 157.554 15.7701Z" fill="white"/>
<path d="M162.037 15.7701C162.037 14.6104 162.27 13.5974 162.736 12.731C163.216 11.8646 163.876 11.1981 164.716 10.7316C165.569 10.2651 166.542 10.0318 167.635 10.0318C169.034 10.0318 170.201 10.3984 171.134 11.1315C172.08 11.8646 172.7 12.8976 172.993 14.2305H169.354C169.048 13.3775 168.455 12.9509 167.575 12.9509C166.948 12.9509 166.449 13.1975 166.075 13.6907C165.702 14.1706 165.516 14.8637 165.516 15.7701C165.516 16.6764 165.702 17.3762 166.075 17.8694C166.449 18.3492 166.948 18.5892 167.575 18.5892C168.455 18.5892 169.048 18.1626 169.354 17.3096H172.993C172.7 18.6158 172.08 19.6422 171.134 20.3886C170.187 21.135 169.021 21.5083 167.635 21.5083C166.542 21.5083 165.569 21.275 164.716 20.8085C163.876 20.342 163.216 19.6755 162.736 18.8091C162.27 17.9427 162.037 16.9297 162.037 15.7701Z" fill="white"/>
<path d="M176.629 9.03216C176.03 9.03216 175.536 8.85888 175.15 8.51232C174.777 8.15243 174.59 7.71257 174.59 7.19273C174.59 6.65956 174.777 6.2197 175.15 5.87315C175.536 5.51326 176.03 5.33331 176.629 5.33331C177.216 5.33331 177.696 5.51326 178.069 5.87315C178.456 6.2197 178.649 6.65956 178.649 7.19273C178.649 7.71257 178.456 8.15243 178.069 8.51232C177.696 8.85888 177.216 9.03216 176.629 9.03216ZM178.349 22.7879C178.349 24.1608 178.002 25.1471 177.309 25.7469C176.616 26.3601 175.65 26.6666 174.41 26.6666H173.071V23.7676H173.89C174.263 23.7676 174.53 23.6942 174.69 23.5476C174.85 23.401 174.93 23.1611 174.93 22.8279V10.1918H178.349V22.7879Z" fill="white"/>
<path d="M181.95 9.03216C181.35 9.03216 180.857 8.85888 180.471 8.51232C180.098 8.15243 179.911 7.71257 179.911 7.19273C179.911 6.65956 180.098 6.2197 180.471 5.87315C180.857 5.51326 181.35 5.33331 181.95 5.33331C182.537 5.33331 183.017 5.51326 183.39 5.87315C183.776 6.2197 183.97 6.65956 183.97 7.19273C183.97 7.71257 183.776 8.15243 183.39 8.51232C183.017 8.85888 182.537 9.03216 181.95 9.03216ZM183.65 10.1918V21.3483H180.231V10.1918H183.65Z" fill="white"/>
<path d="M79.8035 21.6459C78.7149 21.6459 77.7325 21.4136 76.8563 20.9489C75.9934 20.4843 75.3098 19.8205 74.8053 18.9576C74.3141 18.0948 74.0685 17.0858 74.0685 15.9309C74.0685 14.7892 74.3207 13.7869 74.8252 12.924C75.3297 12.0478 76.02 11.3774 76.8962 10.9128C77.7723 10.4482 78.7547 10.2158 79.8433 10.2158C80.9319 10.2158 81.9142 10.4482 82.7904 10.9128C83.6666 11.3774 84.3569 12.0478 84.8614 12.924C85.3658 13.7869 85.618 14.7892 85.618 15.9309C85.618 17.0726 85.3592 18.0815 84.8414 18.9576C84.337 19.8205 83.64 20.4843 82.7506 20.9489C81.8744 21.4136 80.892 21.6459 79.8035 21.6459ZM79.8035 18.6988C80.4539 18.6988 81.0049 18.4598 81.4562 17.9819C81.9209 17.504 82.1532 16.8203 82.1532 15.9309C82.1532 15.0414 81.9275 14.3577 81.4761 13.8798C81.0381 13.4019 80.4938 13.163 79.8433 13.163C79.1795 13.163 78.6286 13.4019 78.1905 13.8798C77.7524 14.3445 77.5334 15.0282 77.5334 15.9309C77.5334 16.8203 77.7458 17.504 78.1706 17.9819C78.6087 18.4598 79.153 18.6988 79.8035 18.6988Z" fill="white"/>
</svg>
