<svg width="24" height="24" viewBox="0 0 24 24" fill="none" xmlns="http://www.w3.org/2000/svg">
<path fill-rule="evenodd" clip-rule="evenodd" d="M7.35155 24C11.4117 24 14.7031 20.7086 14.7031 16.6484C14.7031 12.5883 11.4117 9.2969 7.35155 9.2969C3.2914 9.2969 0 12.5883 0 16.6484C0 20.7086 3.2914 24 7.35155 24ZM7.35131 20.6658C9.57001 20.6658 11.3686 18.8671 11.3686 16.6484C11.3686 14.4298 9.57001 12.6311 7.35131 12.6311C5.13261 12.6311 3.334 14.4298 3.334 16.6484C3.334 18.8671 5.13261 20.6658 7.35131 20.6658Z" fill="#42419D"/>
<path d="M9.21622 4.94571C11.7384 5.39044 14.0551 6.62224 15.8342 8.46456C17.6133 10.3069 18.7635 12.6651 19.12 15.2013L16.1974 15.6121C15.9277 13.6931 15.0574 11.9087 13.7112 10.5147C12.3651 9.12073 10.6122 8.18869 8.70372 7.85219L9.21622 4.94571Z" fill="#42419D" fill-opacity="0.5"/>
<path d="M7.69225 0C9.83389 2.55388e-08 11.9546 0.421827 13.9332 1.2414C15.9118 2.06097 17.7096 3.26223 19.224 4.77659C20.7383 6.29096 21.9396 8.08877 22.7592 10.0674C23.5787 12.046 24.0006 14.1667 24.0006 16.3083H20.7389C20.7389 14.595 20.4014 12.8985 19.7458 11.3156C19.0901 9.73268 18.1291 8.29443 16.9176 7.08294C15.7061 5.87144 14.2679 4.91043 12.685 4.25478C11.1021 3.59912 9.40556 3.26166 7.69225 3.26166V0Z" fill="#42419D" fill-opacity="0.25"/>
</svg>
