<svg width="184" height="32" viewBox="0 0 184 32" fill="none" xmlns="http://www.w3.org/2000/svg">
<path fill-rule="evenodd" clip-rule="evenodd" d="M9.80207 32C15.2156 32 19.6041 27.6115 19.6041 22.1979C19.6041 16.7844 15.2156 12.3959 9.80207 12.3959C4.38854 12.3959 0 16.7844 0 22.1979C0 27.6115 4.38854 32 9.80207 32ZM9.80175 27.5543C12.76 27.5543 15.1582 25.1562 15.1582 22.1979C15.1582 19.2397 12.76 16.8415 9.80175 16.8415C6.84348 16.8415 4.44533 19.2397 4.44533 22.1979C4.44533 25.1562 6.84348 27.5543 9.80175 27.5543Z" fill="#42419D"/>
<path d="M12.2883 6.59428C15.6512 7.18726 18.7401 8.82966 21.1123 11.2861C23.4844 13.7425 25.018 16.8869 25.4933 20.2685L21.5965 20.8161C21.2369 18.2574 20.0765 15.8783 18.2816 14.0196C16.4867 12.161 14.1495 10.9183 11.605 10.4696L12.2883 6.59428Z" fill="#42419D" fill-opacity="0.5"/>
<path d="M10.2563 0C13.1119 3.40517e-08 15.9394 0.562436 18.5776 1.65519C21.2157 2.74795 23.6128 4.34964 25.632 6.36879C27.6511 8.38795 29.2528 10.785 30.3456 13.4232C31.4383 16.0613 32.0007 18.8889 32.0007 21.7444H27.6519C27.6519 19.46 27.2019 17.198 26.3277 15.0874C25.4535 12.9769 24.1722 11.0592 22.5568 9.44391C20.9415 7.82859 19.0238 6.54724 16.9133 5.67304C14.8028 4.79883 12.5407 4.34888 10.2563 4.34888V0Z" fill="#42419D" fill-opacity="0.25"/>
<path d="M46.0864 10.1655V13.0046H50.0121C49.6405 13.85 49.4987 14.7072 49.5542 15.6437H46.0864V18.7228H49.8809C50.2533 19.9328 50.9946 20.8997 52.0186 21.4619H42.6674V7.42631H51.2647V10.1655H46.0864Z" fill="#0F0E29"/>
<path d="M50.2948 15.9294C50.2948 14.7697 50.5281 13.7567 50.9946 12.8903C51.4745 12.0239 52.1343 11.3575 52.974 10.891C53.8271 10.4244 54.8001 10.1912 55.8931 10.1912C57.2927 10.1912 58.459 10.5577 59.392 11.2908C60.3384 12.0239 60.9582 13.0569 61.2514 14.3899H57.6126C57.306 13.5368 56.7128 13.1103 55.8331 13.1103C55.2066 13.1103 54.7068 13.3569 54.3336 13.85C53.9604 14.3299 53.7738 15.023 53.7738 15.9294C53.7738 16.8358 53.9604 17.5355 54.3336 18.0287C54.7068 18.5086 55.2066 18.7485 55.8331 18.7485C56.7128 18.7485 57.306 18.322 57.6126 17.4689H61.2514C60.9582 18.7752 60.3384 19.8015 59.392 20.5479C58.4456 21.2944 57.2793 21.6676 55.8931 21.6676C54.8001 21.6676 53.8271 21.4343 52.974 20.9678C52.1343 20.5013 51.4745 19.8348 50.9946 18.9684C50.5281 18.102 50.2948 17.089 50.2948 15.9294Z" fill="#0F0E29"/>
<path d="M69.094 10.1854C70.3736 10.1854 71.3999 10.612 72.173 11.465C72.9461 12.3048 73.3327 13.4644 73.3327 14.944V21.4619H69.9337V15.4038C69.9337 14.6574 69.7405 14.0776 69.3539 13.6644C68.9674 13.2512 68.4475 13.0446 67.7944 13.0446C67.1413 13.0446 66.6214 13.2512 66.2349 13.6644C65.8483 14.0776 65.6551 14.6574 65.6551 15.4038V21.4619H62.2361V6.66655H65.6551V11.8049C66.0016 11.3118 66.4748 10.9186 67.0746 10.6253C67.6744 10.3321 68.3476 10.1854 69.094 10.1854Z" fill="#0F0E29"/>
<path d="M100.434 11.7513C100.18 11.2848 99.8137 10.9316 99.3339 10.6917C98.8674 10.4384 98.3142 10.3118 97.6744 10.3118C96.5681 10.3118 95.6817 10.6783 95.0152 11.4114C94.3488 12.1312 94.0155 13.0976 94.0155 14.3105C94.0155 15.6035 94.3621 16.6165 95.0552 17.3496C95.7617 18.0694 96.728 18.4293 97.9543 18.4293C98.794 18.4293 99.5005 18.216 100.074 17.7895C100.66 17.3629 101.087 16.7498 101.353 15.95H97.0146V13.4308H104.452V16.6098C104.199 17.4629 103.766 18.256 103.153 18.9891C102.553 19.7222 101.786 20.3153 100.853 20.7685C99.9204 21.2217 98.8674 21.4483 97.6944 21.4483C96.3082 21.4483 95.0686 21.1484 93.9756 20.5486C92.8959 19.9354 92.0495 19.089 91.4364 18.0094C90.8365 16.9297 90.5366 15.6968 90.5366 14.3105C90.5366 12.9243 90.8365 11.6914 91.4364 10.6117C92.0495 9.5187 92.8959 8.6723 93.9756 8.07249C95.0552 7.45935 96.2882 7.15277 97.6744 7.15277C99.3539 7.15277 100.767 7.55931 101.913 8.37239C103.073 9.18547 103.839 10.3118 104.212 11.7513H100.434Z" fill="#0F0E29"/>
<path d="M116.478 15.5901C116.478 15.91 116.458 16.2433 116.418 16.5898H108.68C108.733 17.2829 108.953 17.8161 109.34 18.1893C109.74 18.5492 110.226 18.7292 110.799 18.7292C111.653 18.7292 112.246 18.3693 112.579 17.6495H116.218C116.031 18.3826 115.691 19.0424 115.198 19.6289C114.718 20.2154 114.112 20.6752 113.379 21.0084C112.646 21.3417 111.826 21.5083 110.919 21.5083C109.826 21.5083 108.853 21.275 108 20.8085C107.147 20.342 106.481 19.6755 106.001 18.8091C105.521 17.9427 105.281 16.9297 105.281 15.7701C105.281 14.6104 105.514 13.5974 105.981 12.731C106.461 11.8646 107.127 11.1982 107.98 10.7317C108.833 10.2651 109.813 10.0319 110.919 10.0319C111.999 10.0319 112.959 10.2585 113.799 10.7117C114.638 11.1649 115.291 11.8113 115.758 12.6511C116.238 13.4908 116.478 14.4705 116.478 15.5901ZM112.979 14.6904C112.979 14.1039 112.779 13.6374 112.379 13.2909C111.979 12.9443 111.479 12.771 110.879 12.771C110.306 12.771 109.82 12.9376 109.42 13.2709C109.033 13.6041 108.793 14.0773 108.7 14.6904H112.979Z" fill="#0F0E29"/>
<path d="M124.155 10.0719C125.461 10.0719 126.501 10.4984 127.274 11.3515C128.06 12.1912 128.454 13.3508 128.454 14.8304V21.3483H125.055V15.2902C125.055 14.5438 124.861 13.964 124.475 13.5508C124.088 13.1376 123.569 12.931 122.915 12.931C122.262 12.931 121.742 13.1376 121.356 13.5508C120.969 13.964 120.776 14.5438 120.776 15.2902V21.3483H117.357V10.1918H120.776V11.6714C121.123 11.1782 121.589 10.7916 122.176 10.5117C122.762 10.2185 123.422 10.0719 124.155 10.0719Z" fill="#0F0E29"/>
<path d="M140.73 15.5901C140.73 15.91 140.71 16.2433 140.67 16.5898H132.933C132.986 17.2829 133.206 17.8161 133.592 18.1893C133.992 18.5492 134.479 18.7292 135.052 18.7292C135.905 18.7292 136.498 18.3693 136.831 17.6495H140.47C140.284 18.3826 139.944 19.0424 139.45 19.6289C138.971 20.2154 138.364 20.6752 137.631 21.0084C136.898 21.3417 136.078 21.5083 135.172 21.5083C134.079 21.5083 133.106 21.275 132.253 20.8085C131.4 20.342 130.733 19.6755 130.253 18.8091C129.773 17.9427 129.534 16.9297 129.534 15.7701C129.534 14.6104 129.767 13.5974 130.233 12.731C130.713 11.8646 131.38 11.1982 132.233 10.7317C133.086 10.2651 134.065 10.0319 135.172 10.0319C136.251 10.0319 137.211 10.2585 138.051 10.7117C138.891 11.1649 139.544 11.8113 140.01 12.6511C140.49 13.4908 140.73 14.4705 140.73 15.5901ZM137.231 14.6904C137.231 14.1039 137.031 13.6374 136.631 13.2909C136.231 12.9443 135.732 12.771 135.132 12.771C134.559 12.771 134.072 12.9376 133.672 13.2709C133.286 13.6041 133.046 14.0773 132.952 14.6904H137.231Z" fill="#0F0E29"/>
<path d="M145.491 12.0512C145.89 11.4381 146.39 10.9583 146.99 10.6117C147.857 10.1109 149.468 9.86816 150.917 10.0319C149.346 10.8845 148.491 12.5522 148.346 13.681C147.355 13.5285 146.557 13.8773 146.13 14.2506C145.704 14.6104 145.491 15.2502 145.491 16.17V21.3483H142.072V10.1918H145.491V12.0512Z" fill="#0F0E29"/>
<path d="M149.196 15.7501C149.196 14.6038 149.41 13.5974 149.836 12.731C150.276 11.8646 150.869 11.1982 151.616 10.7317C152.362 10.2651 153.195 10.0319 154.115 10.0319C154.901 10.0319 155.588 10.1918 156.174 10.5117C156.774 10.8316 157.234 11.2515 157.554 11.7713V10.1918H160.973V21.3483H157.554V19.7688C157.22 20.2887 156.754 20.7085 156.154 21.0284C155.568 21.3483 154.881 21.5083 154.095 21.5083C153.188 21.5083 152.362 21.275 151.616 20.8085C150.869 20.3287 150.276 19.6555 149.836 18.7891C149.41 17.9094 149.196 16.8964 149.196 15.7501ZM157.554 15.7701C157.554 14.917 157.314 14.2439 156.834 13.7507C156.367 13.2575 155.794 13.0109 155.114 13.0109C154.435 13.0109 153.855 13.2575 153.375 13.7507C152.909 14.2306 152.675 14.897 152.675 15.7501C152.675 16.6032 152.909 17.2829 153.375 17.7895C153.855 18.2826 154.435 18.5292 155.114 18.5292C155.794 18.5292 156.367 18.2826 156.834 17.7895C157.314 17.2963 157.554 16.6232 157.554 15.7701Z" fill="#0F0E29"/>
<path d="M162.037 15.7701C162.037 14.6104 162.27 13.5974 162.736 12.731C163.216 11.8646 163.876 11.1982 164.716 10.7317C165.569 10.2651 166.542 10.0319 167.635 10.0319C169.034 10.0319 170.201 10.3984 171.134 11.1315C172.08 11.8646 172.7 12.8976 172.993 14.2306H169.354C169.048 13.3775 168.455 12.951 167.575 12.951C166.948 12.951 166.449 13.1976 166.075 13.6907C165.702 14.1706 165.516 14.8637 165.516 15.7701C165.516 16.6765 165.702 17.3762 166.075 17.8694C166.449 18.3493 166.948 18.5892 167.575 18.5892C168.455 18.5892 169.048 18.1627 169.354 17.3096H172.993C172.7 18.6159 172.08 19.6422 171.134 20.3886C170.187 21.1351 169.021 21.5083 167.635 21.5083C166.542 21.5083 165.569 21.275 164.716 20.8085C163.876 20.342 163.216 19.6755 162.736 18.8091C162.27 17.9427 162.037 16.9297 162.037 15.7701Z" fill="#0F0E29"/>
<path d="M176.629 9.03219C176.03 9.03219 175.536 8.85891 175.15 8.51235C174.777 8.15246 174.59 7.7126 174.59 7.19276C174.59 6.6596 174.777 6.21973 175.15 5.87318C175.536 5.51329 176.03 5.33334 176.629 5.33334C177.216 5.33334 177.696 5.51329 178.069 5.87318C178.456 6.21973 178.649 6.6596 178.649 7.19276C178.649 7.7126 178.456 8.15246 178.069 8.51235C177.696 8.85891 177.216 9.03219 176.629 9.03219ZM178.349 22.7879C178.349 24.1608 178.002 25.1472 177.309 25.747C176.616 26.3601 175.65 26.6667 174.41 26.6667H173.071V23.7676H173.89C174.264 23.7676 174.53 23.6943 174.69 23.5477C174.85 23.401 174.93 23.1611 174.93 22.8279V10.1918H178.349V22.7879Z" fill="#0F0E29"/>
<path d="M181.95 9.03219C181.35 9.03219 180.857 8.85891 180.471 8.51235C180.098 8.15246 179.911 7.7126 179.911 7.19276C179.911 6.6596 180.098 6.21973 180.471 5.87318C180.857 5.51329 181.35 5.33334 181.95 5.33334C182.537 5.33334 183.017 5.51329 183.39 5.87318C183.776 6.21973 183.97 6.6596 183.97 7.19276C183.97 7.7126 183.776 8.15246 183.39 8.51235C183.017 8.85891 182.537 9.03219 181.95 9.03219ZM183.65 10.1918V21.3483H180.231V10.1918H183.65Z" fill="#0F0E29"/>
<path d="M79.8035 21.6459C78.7149 21.6459 77.7325 21.4136 76.8563 20.949C75.9934 20.4843 75.3097 19.8206 74.8053 18.9577C74.3141 18.0948 74.0685 17.0859 74.0685 15.9309C74.0685 14.7892 74.3207 13.7869 74.8252 12.924C75.3297 12.0479 76.02 11.3775 76.8962 10.9128C77.7723 10.4482 78.7547 10.2159 79.8433 10.2159C80.9319 10.2159 81.9142 10.4482 82.7904 10.9128C83.6666 11.3775 84.3569 12.0479 84.8614 12.924C85.3658 13.7869 85.618 14.7892 85.618 15.9309C85.618 17.0726 85.3592 18.0815 84.8414 18.9577C84.337 19.8206 83.64 20.4843 82.7506 20.949C81.8744 21.4136 80.892 21.6459 79.8035 21.6459ZM79.8035 18.6988C80.4539 18.6988 81.0049 18.4599 81.4562 17.9819C81.9209 17.504 82.1532 16.8204 82.1532 15.9309C82.1532 15.0415 81.9275 14.3578 81.4761 13.8799C81.0381 13.402 80.4938 13.163 79.8433 13.163C79.1795 13.163 78.6286 13.402 78.1905 13.8799C77.7524 14.3445 77.5334 15.0282 77.5334 15.9309C77.5334 16.8204 77.7458 17.504 78.1706 17.9819C78.6087 18.4599 79.153 18.6988 79.8035 18.6988Z" fill="#0F0E29"/>
</svg>
