<svg width="22" height="16" viewBox="0 0 22 16" fill="none" xmlns="http://www.w3.org/2000/svg">
<path d="M20.9292 5.28333C21.0917 5.15417 21.3333 5.275 21.3333 5.47917V14C21.3333 15.1042 20.4375 16 19.3333 16H2C0.895833 16 0 15.1042 0 14V5.48333C0 5.275 0.2375 5.15833 0.404167 5.2875C1.3375 6.0125 2.575 6.93333 6.825 10.0208C7.70417 10.6625 9.1875 12.0125 10.6667 12.0042C12.1542 12.0167 13.6667 10.6375 14.5125 10.0208C18.7625 6.93333 19.9958 6.00833 20.9292 5.28333ZM10.6667 10.6667C11.6333 10.6833 13.025 9.45 13.725 8.94167C19.2542 4.92917 19.675 4.57917 20.95 3.57917C21.1917 3.39167 21.3333 3.1 21.3333 2.79167V2C21.3333 0.895833 20.4375 0 19.3333 0H2C0.895833 0 0 0.895833 0 2V2.79167C0 3.1 0.141667 3.3875 0.383333 3.57917C1.65833 4.575 2.07917 4.92917 7.60833 8.94167C8.30833 9.45 9.7 10.6833 10.6667 10.6667Z" fill="white"/>
</svg>
