<svg width="61" height="12" viewBox="0 0 61 12" fill="none" xmlns="http://www.w3.org/2000/svg">
<g clip-path="url(#clip0_308_43)">
<path fill-rule="evenodd" clip-rule="evenodd" d="M10.127 0.131757C12.5432 0.587183 14.4542 2.20321 15.15 4.3824C15.3168 4.91128 15.3644 5.26877 15.3597 6.03271C15.3597 6.61545 15.3406 6.85541 15.2596 7.1982C14.8784 8.79464 13.8394 10.1805 12.3954 11.0228C11.6711 11.4488 10.7847 11.7769 10.0603 11.8945C9.69809 11.9532 0 12.0365 0 11.9826C0.00476565 11.9483 0.972192 10.8808 2.01587 9.76916C2.50673 9.24027 2.90705 8.78974 2.90705 8.76036C2.90705 8.73588 2.82126 8.5253 2.71642 8.30004C1.84431 6.40978 2.10642 4.23549 3.41697 2.53131C4.08893 1.65964 5.01346 0.969152 6.0905 0.528418C6.73386 0.263977 7.28667 0.131757 8.19691 0.0142279C8.54004 -0.0298456 9.62184 0.0338162 10.127 0.131757ZM7.83949 1.16014C8.07777 1.13075 8.30176 1.09648 8.33988 1.08668C8.54481 1.04751 9.15957 1.07199 9.63614 1.14055C11.9094 1.46375 13.6917 3.06019 14.1111 5.15123C14.5448 7.30104 13.3009 9.49002 11.1183 10.4401C10.6274 10.6506 10.1175 10.7975 9.6695 10.8514C9.11192 10.9249 2.5115 10.9787 2.53056 10.9151C2.54009 10.8808 2.83079 10.5527 3.17392 10.1854C3.39397 9.94672 3.64146 9.67582 3.83343 9.46569C3.9408 9.34816 4.03081 9.24964 4.08893 9.18641L4.37963 8.8681L4.189 8.57427C3.1072 6.92397 3.1358 4.93087 4.27479 3.30505C5.04205 2.20811 6.46698 1.35112 7.83949 1.16014Z" fill="white"/>
<path fill-rule="evenodd" clip-rule="evenodd" d="M10.127 0.131757C12.5432 0.587183 14.4542 2.20321 15.15 4.3824C15.3168 4.91128 15.3644 5.26877 15.3597 6.03271C15.3597 6.61545 15.3406 6.85541 15.2596 7.1982C14.8784 8.79464 13.8394 10.1805 12.3954 11.0228C11.6711 11.4488 10.7847 11.7769 10.0603 11.8945C9.69809 11.9532 0 12.0365 0 11.9826C0.00476565 11.9483 0.972192 10.8808 2.01587 9.76916C2.50673 9.24027 2.90705 8.78974 2.90705 8.76036C2.90705 8.73588 2.82126 8.5253 2.71642 8.30004C1.84431 6.40978 2.10642 4.23549 3.41697 2.53131C4.08893 1.65964 5.01346 0.969152 6.0905 0.528418C6.73386 0.263977 7.28667 0.131757 8.19691 0.0142279C8.54004 -0.0298456 9.62184 0.0338162 10.127 0.131757ZM7.83949 1.16014C8.07777 1.13075 8.30176 1.09648 8.33988 1.08668C8.54481 1.04751 9.15957 1.07199 9.63614 1.14055C11.9094 1.46375 13.6917 3.06019 14.1111 5.15123C14.5448 7.30104 13.3009 9.49002 11.1183 10.4401C10.6274 10.6506 10.1175 10.7975 9.6695 10.8514C9.11192 10.9249 2.5115 10.9787 2.53056 10.9151C2.54009 10.8808 2.83079 10.5527 3.17392 10.1854C3.39397 9.94672 3.64146 9.67582 3.83343 9.46569C3.9408 9.34816 4.03081 9.24964 4.08893 9.18641L4.37963 8.8681L4.189 8.57427C3.1072 6.92397 3.1358 4.93087 4.27479 3.30505C5.04205 2.20811 6.46698 1.35112 7.83949 1.16014Z" fill="url(#paint0_linear_308_43)"/>
<path d="M9.09286 2.96225C9.80294 3.19241 10.2461 3.80944 10.2461 4.56849C10.2461 5.23938 9.82677 5.8711 9.22153 6.10126C8.83075 6.25307 8.2827 6.23348 7.9348 6.05719C7.23425 5.69971 6.86253 4.86721 7.07699 4.12285C7.33433 3.20221 8.22551 2.68802 9.09286 2.96225Z" fill="white"/>
<path d="M9.09286 2.96225C9.80294 3.19241 10.2461 3.80944 10.2461 4.56849C10.2461 5.23938 9.82677 5.8711 9.22153 6.10126C8.83075 6.25307 8.2827 6.23348 7.9348 6.05719C7.23425 5.69971 6.86253 4.86721 7.07699 4.12285C7.33433 3.20221 8.22551 2.68802 9.09286 2.96225Z" fill="url(#paint1_linear_308_43)"/>
<path d="M11.814 3.94656C12.4097 4.25997 12.5718 5.0435 12.1429 5.5479C11.9904 5.72909 11.6949 5.90538 11.5472 5.91517C11.4995 5.91517 11.571 5.95435 11.7044 6.00332C12.262 6.1992 12.6528 6.68891 12.71 7.26676L12.7386 7.5312L11.7902 7.5263C11.5892 7.5263 11.3983 7.52557 11.238 7.52496C10.9839 7.52398 10.807 7.5233 10.7894 7.5263C10.7608 7.5263 10.799 7.65363 10.8704 7.80544C11.0229 8.12864 11.1516 8.64773 11.1516 8.94155V9.14233H6.10003V8.98073C6.10479 8.67711 6.243 8.14823 6.42409 7.76626L6.60519 7.37939H5.05159V7.23738C5.05159 6.8652 5.37565 6.35591 5.70448 6.21879C5.81886 6.16982 5.9094 6.12085 5.9094 6.10616C5.9094 6.09147 5.82362 6.0327 5.72354 5.97394C5.2851 5.7144 5.24698 4.97004 5.65206 4.64194C5.938 4.41178 6.30972 4.40199 6.62902 4.61256C6.87206 4.77416 6.97214 5.01901 6.94831 5.3765C6.92925 5.62625 6.90542 5.68991 6.76722 5.83682C6.67667 5.92987 6.56706 6.01801 6.51941 6.0376C6.39073 6.07678 6.41456 6.13065 6.59566 6.19431C6.77199 6.26287 6.97214 6.44406 7.09605 6.65463L7.17707 6.78685L7.40105 6.64484C8.12543 6.17962 9.19293 6.18451 9.88872 6.65463C10.1079 6.80154 10.1222 6.80644 10.1699 6.72319C10.3558 6.39019 10.6751 6.12575 11.0277 6.00332C11.1611 5.95435 11.2326 5.91517 11.185 5.91517C10.899 5.90048 10.4749 5.50872 10.3891 5.16593C10.2128 4.49503 10.6798 3.85841 11.3565 3.85352C11.5376 3.85352 11.6949 3.8878 11.814 3.94656Z" fill="white"/>
<path d="M11.814 3.94656C12.4097 4.25997 12.5718 5.0435 12.1429 5.5479C11.9904 5.72909 11.6949 5.90538 11.5472 5.91517C11.4995 5.91517 11.571 5.95435 11.7044 6.00332C12.262 6.1992 12.6528 6.68891 12.71 7.26676L12.7386 7.5312L11.7902 7.5263C11.5892 7.5263 11.3983 7.52557 11.238 7.52496C10.9839 7.52398 10.807 7.5233 10.7894 7.5263C10.7608 7.5263 10.799 7.65363 10.8704 7.80544C11.0229 8.12864 11.1516 8.64773 11.1516 8.94155V9.14233H6.10003V8.98073C6.10479 8.67711 6.243 8.14823 6.42409 7.76626L6.60519 7.37939H5.05159V7.23738C5.05159 6.8652 5.37565 6.35591 5.70448 6.21879C5.81886 6.16982 5.9094 6.12085 5.9094 6.10616C5.9094 6.09147 5.82362 6.0327 5.72354 5.97394C5.2851 5.7144 5.24698 4.97004 5.65206 4.64194C5.938 4.41178 6.30972 4.40199 6.62902 4.61256C6.87206 4.77416 6.97214 5.01901 6.94831 5.3765C6.92925 5.62625 6.90542 5.68991 6.76722 5.83682C6.67667 5.92987 6.56706 6.01801 6.51941 6.0376C6.39073 6.07678 6.41456 6.13065 6.59566 6.19431C6.77199 6.26287 6.97214 6.44406 7.09605 6.65463L7.17707 6.78685L7.40105 6.64484C8.12543 6.17962 9.19293 6.18451 9.88872 6.65463C10.1079 6.80154 10.1222 6.80644 10.1699 6.72319C10.3558 6.39019 10.6751 6.12575 11.0277 6.00332C11.1611 5.95435 11.2326 5.91517 11.185 5.91517C10.899 5.90048 10.4749 5.50872 10.3891 5.16593C10.2128 4.49503 10.6798 3.85841 11.3565 3.85352C11.5376 3.85352 11.6949 3.8878 11.814 3.94656Z" fill="url(#paint2_linear_308_43)"/>
<path fill-rule="evenodd" clip-rule="evenodd" d="M15.15 4.3824C14.4542 2.20321 12.5432 0.587183 10.127 0.131757C9.62184 0.0338162 8.54004 -0.0298456 8.19691 0.0142279C7.28667 0.131757 6.73386 0.263977 6.0905 0.528418C5.01346 0.969152 4.08893 1.65964 3.41697 2.53131C2.10642 4.23549 1.84431 6.40978 2.71642 8.30004C2.82126 8.5253 2.90705 8.73588 2.90705 8.76036C2.90705 8.78974 2.50673 9.24027 2.01587 9.76916C0.972192 10.8808 0.00476565 11.9483 0 11.9826C0 12.0365 9.69809 11.9532 10.0603 11.8945C10.7847 11.7769 11.6711 11.4488 12.3954 11.0228C13.8394 10.1805 14.8784 8.79464 15.2596 7.1982C15.3406 6.85541 15.3597 6.61545 15.3597 6.03271C15.3644 5.26877 15.3168 4.91128 15.15 4.3824ZM7.83949 1.16014C8.07777 1.13075 8.30176 1.09648 8.33988 1.08668C8.54481 1.04751 9.15957 1.07199 9.63614 1.14055C11.9094 1.46375 13.6917 3.06019 14.1111 5.15123C14.5448 7.30104 13.3009 9.49002 11.1183 10.4401C10.6274 10.6506 10.1175 10.7975 9.6695 10.8514C9.11192 10.9249 2.5115 10.9787 2.53056 10.9151C2.54009 10.8808 2.83079 10.5527 3.17392 10.1854C3.39397 9.94672 3.64146 9.67582 3.83343 9.46569C3.9408 9.34816 4.03081 9.24964 4.08893 9.18641L4.37963 8.8681L4.189 8.57427C3.1072 6.92397 3.1358 4.93087 4.27479 3.30505C5.04205 2.20811 6.46698 1.35112 7.83949 1.16014ZM9.09286 2.96225C9.80294 3.19241 10.2461 3.80944 10.2461 4.56849C10.2461 5.23938 9.82677 5.8711 9.22153 6.10126C8.83075 6.25307 8.2827 6.23348 7.9348 6.05719C7.23425 5.69971 6.86253 4.86721 7.07699 4.12285C7.33433 3.20221 8.22551 2.68802 9.09286 2.96225ZM11.814 3.94656C12.4097 4.25997 12.5718 5.0435 12.1429 5.5479C11.9904 5.72909 11.6949 5.90538 11.5472 5.91517C11.4995 5.91517 11.571 5.95435 11.7044 6.00332C12.262 6.1992 12.6528 6.68891 12.71 7.26676L12.7386 7.5312L11.7902 7.5263C11.5892 7.5263 11.3983 7.52557 11.238 7.52496C10.9839 7.52398 10.807 7.5233 10.7894 7.5263C10.7608 7.5263 10.799 7.65363 10.8704 7.80544C11.0229 8.12864 11.1516 8.64773 11.1516 8.94155V9.14233H6.10003V8.98073C6.10479 8.67711 6.243 8.14823 6.42409 7.76626L6.60519 7.37939H5.05159V7.23738C5.05159 6.8652 5.37565 6.35591 5.70448 6.21879C5.81886 6.16982 5.9094 6.12085 5.9094 6.10616C5.9094 6.09147 5.82362 6.0327 5.72354 5.97394C5.2851 5.7144 5.24698 4.97004 5.65206 4.64194C5.938 4.41178 6.30972 4.40199 6.62902 4.61256C6.87206 4.77416 6.97214 5.01901 6.94831 5.3765C6.92925 5.62625 6.90542 5.68991 6.76722 5.83682C6.67667 5.92987 6.56706 6.01801 6.51941 6.0376C6.39073 6.07678 6.41456 6.13065 6.59566 6.19431C6.77199 6.26287 6.97214 6.44406 7.09605 6.65463L7.17707 6.78685L7.40105 6.64484C8.12543 6.17962 9.19293 6.18451 9.88872 6.65463C10.1079 6.80154 10.1222 6.80644 10.1699 6.72319C10.3558 6.39019 10.6751 6.12575 11.0277 6.00332C11.1611 5.95435 11.2326 5.91517 11.185 5.91517C10.899 5.90048 10.4749 5.50872 10.3891 5.16593C10.2128 4.49503 10.6798 3.85841 11.3565 3.85352C11.5376 3.85352 11.6949 3.8878 11.814 3.94656Z" fill="white"/>
<path fill-rule="evenodd" clip-rule="evenodd" d="M15.15 4.3824C14.4542 2.20321 12.5432 0.587183 10.127 0.131757C9.62184 0.0338162 8.54004 -0.0298456 8.19691 0.0142279C7.28667 0.131757 6.73386 0.263977 6.0905 0.528418C5.01346 0.969152 4.08893 1.65964 3.41697 2.53131C2.10642 4.23549 1.84431 6.40978 2.71642 8.30004C2.82126 8.5253 2.90705 8.73588 2.90705 8.76036C2.90705 8.78974 2.50673 9.24027 2.01587 9.76916C0.972192 10.8808 0.00476565 11.9483 0 11.9826C0 12.0365 9.69809 11.9532 10.0603 11.8945C10.7847 11.7769 11.6711 11.4488 12.3954 11.0228C13.8394 10.1805 14.8784 8.79464 15.2596 7.1982C15.3406 6.85541 15.3597 6.61545 15.3597 6.03271C15.3644 5.26877 15.3168 4.91128 15.15 4.3824ZM7.83949 1.16014C8.07777 1.13075 8.30176 1.09648 8.33988 1.08668C8.54481 1.04751 9.15957 1.07199 9.63614 1.14055C11.9094 1.46375 13.6917 3.06019 14.1111 5.15123C14.5448 7.30104 13.3009 9.49002 11.1183 10.4401C10.6274 10.6506 10.1175 10.7975 9.6695 10.8514C9.11192 10.9249 2.5115 10.9787 2.53056 10.9151C2.54009 10.8808 2.83079 10.5527 3.17392 10.1854C3.39397 9.94672 3.64146 9.67582 3.83343 9.46569C3.9408 9.34816 4.03081 9.24964 4.08893 9.18641L4.37963 8.8681L4.189 8.57427C3.1072 6.92397 3.1358 4.93087 4.27479 3.30505C5.04205 2.20811 6.46698 1.35112 7.83949 1.16014ZM9.09286 2.96225C9.80294 3.19241 10.2461 3.80944 10.2461 4.56849C10.2461 5.23938 9.82677 5.8711 9.22153 6.10126C8.83075 6.25307 8.2827 6.23348 7.9348 6.05719C7.23425 5.69971 6.86253 4.86721 7.07699 4.12285C7.33433 3.20221 8.22551 2.68802 9.09286 2.96225ZM11.814 3.94656C12.4097 4.25997 12.5718 5.0435 12.1429 5.5479C11.9904 5.72909 11.6949 5.90538 11.5472 5.91517C11.4995 5.91517 11.571 5.95435 11.7044 6.00332C12.262 6.1992 12.6528 6.68891 12.71 7.26676L12.7386 7.5312L11.7902 7.5263C11.5892 7.5263 11.3983 7.52557 11.238 7.52496C10.9839 7.52398 10.807 7.5233 10.7894 7.5263C10.7608 7.5263 10.799 7.65363 10.8704 7.80544C11.0229 8.12864 11.1516 8.64773 11.1516 8.94155V9.14233H6.10003V8.98073C6.10479 8.67711 6.243 8.14823 6.42409 7.76626L6.60519 7.37939H5.05159V7.23738C5.05159 6.8652 5.37565 6.35591 5.70448 6.21879C5.81886 6.16982 5.9094 6.12085 5.9094 6.10616C5.9094 6.09147 5.82362 6.0327 5.72354 5.97394C5.2851 5.7144 5.24698 4.97004 5.65206 4.64194C5.938 4.41178 6.30972 4.40199 6.62902 4.61256C6.87206 4.77416 6.97214 5.01901 6.94831 5.3765C6.92925 5.62625 6.90542 5.68991 6.76722 5.83682C6.67667 5.92987 6.56706 6.01801 6.51941 6.0376C6.39073 6.07678 6.41456 6.13065 6.59566 6.19431C6.77199 6.26287 6.97214 6.44406 7.09605 6.65463L7.17707 6.78685L7.40105 6.64484C8.12543 6.17962 9.19293 6.18451 9.88872 6.65463C10.1079 6.80154 10.1222 6.80644 10.1699 6.72319C10.3558 6.39019 10.6751 6.12575 11.0277 6.00332C11.1611 5.95435 11.2326 5.91517 11.185 5.91517C10.899 5.90048 10.4749 5.50872 10.3891 5.16593C10.2128 4.49503 10.6798 3.85841 11.3565 3.85352C11.5376 3.85352 11.6949 3.8878 11.814 3.94656Z" fill="url(#paint3_linear_308_43)"/>
<path d="M22.3425 1.68259C22.309 1.56391 22.2618 1.45905 22.2011 1.36801C22.1403 1.27535 22.066 1.19732 21.9781 1.13392C21.8918 1.06889 21.7926 1.01931 21.6807 0.985166C21.5704 0.951026 21.4482 0.933957 21.3139 0.933957C21.0629 0.933957 20.8423 0.997358 20.6521 1.12416C20.4635 1.25097 20.3164 1.43548 20.2109 1.67771C20.1054 1.91831 20.0526 2.21256 20.0526 2.56046C20.0526 2.90835 20.1046 3.20423 20.2085 3.44808C20.3124 3.69193 20.4595 3.87807 20.6497 4.0065C20.8399 4.13331 21.0645 4.19671 21.3235 4.19671C21.5585 4.19671 21.7591 4.15444 21.9253 4.0699C22.0932 3.98374 22.2211 3.86263 22.309 3.70656C22.3985 3.5505 22.4433 3.36598 22.4433 3.15302L22.6543 3.18472H21.3882V2.38976H23.4431V3.0189C23.4431 3.45783 23.352 3.83499 23.1698 4.15038C22.9876 4.46413 22.7366 4.70636 22.4169 4.87706C22.0972 5.04613 21.7311 5.13066 21.3187 5.13066C20.8583 5.13066 20.4539 5.02743 20.1054 4.82097C19.7569 4.61288 19.4852 4.31782 19.2901 3.93579C19.0967 3.55212 19 3.09693 19 2.57021C19 2.16541 19.0575 1.80451 19.1726 1.4875C19.2893 1.16887 19.4524 0.899005 19.6618 0.677911C19.8712 0.456818 20.115 0.288559 20.3931 0.173136C20.6713 0.0577118 20.9726 0 21.2971 0C21.5752 0 21.8342 0.041455 22.074 0.124365C22.3138 0.205649 22.5264 0.321073 22.7118 0.470636C22.8988 0.620199 23.0515 0.798212 23.1698 1.00467C23.2881 1.20951 23.364 1.43548 23.3976 1.68259H22.3425Z" fill="black"/>
<path d="M24.9178 5.06239H23.8052L25.5005 0.0682788H26.8384L28.5313 5.06239H27.4187L26.1886 1.20951H26.1503L24.9178 5.06239ZM24.8483 3.09937H27.4763V3.92359H24.8483V3.09937Z" fill="black"/>
<path d="M30.8632 5.06239H29.1223V0.0682788H30.8775C31.3715 0.0682788 31.7967 0.168259 32.1532 0.368218C32.5096 0.566551 32.7838 0.851859 32.9756 1.22414C33.169 1.59642 33.2658 2.04186 33.2658 2.56046C33.2658 3.08067 33.169 3.52774 32.9756 3.90165C32.7838 4.27555 32.508 4.56249 32.1484 4.76245C31.7903 4.96241 31.3619 5.06239 30.8632 5.06239ZM30.1606 4.15769H30.82C31.1269 4.15769 31.3851 4.10242 31.5945 3.99187C31.8055 3.8797 31.9637 3.70656 32.0693 3.47247C32.1764 3.23674 32.2299 2.93274 32.2299 2.56046C32.2299 2.19142 32.1764 1.88986 32.0693 1.65576C31.9637 1.42166 31.8063 1.24934 31.5969 1.13879C31.3875 1.02825 31.1293 0.972973 30.8224 0.972973H30.1606V4.15769Z" fill="black"/>
<path d="M34.0349 5.06239V0.0682788H35.0731V2.27027H35.1378L36.905 0.0682788H38.1495L36.3272 2.30441L38.1711 5.06239H36.929L35.5838 3.00914L35.0731 3.64316V5.06239H34.0349Z" fill="black"/>
<path d="M39.5366 5.06239H38.424L40.1193 0.0682788H41.4573L43.1501 5.06239H42.0375L40.8075 1.20951H40.7691L39.5366 5.06239ZM39.4671 3.09937H42.0951V3.92359H39.4671V3.09937Z" fill="black"/>
<path d="M31.1269 8.37147C31.1077 8.17476 31.0254 8.02195 30.8799 7.91303C30.7345 7.80411 30.5371 7.74964 30.2877 7.74964C30.1182 7.74964 29.9752 7.77403 29.8585 7.8228C29.7418 7.86995 29.6523 7.93579 29.5899 8.02032C29.5292 8.10486 29.4988 8.20077 29.4988 8.30807C29.4956 8.39748 29.514 8.47551 29.554 8.54217C29.5955 8.60882 29.6523 8.66653 29.7242 8.7153C29.7961 8.76245 29.8793 8.8039 29.9736 8.83967C30.0679 8.87381 30.1686 8.90307 30.2757 8.92745L30.7169 9.03475C30.9311 9.08352 31.1277 9.14855 31.3067 9.22983C31.4858 9.31112 31.6408 9.4111 31.7719 9.52977C31.903 9.64845 32.0045 9.78826 32.0764 9.9492C32.15 10.1101 32.1875 10.2947 32.1891 10.5027C32.1875 10.8084 32.1108 11.0734 31.959 11.2977C31.8087 11.5204 31.5913 11.6936 31.3067 11.8171C31.0238 11.939 30.6825 12 30.2829 12C29.8864 12 29.5412 11.9382 29.247 11.8147C28.9545 11.6911 28.7259 11.5082 28.5613 11.266C28.3982 11.0222 28.3127 10.7206 28.3047 10.3613H29.3094C29.3206 10.5288 29.3677 10.6686 29.4508 10.7807C29.5356 10.8913 29.6483 10.975 29.7889 11.0319C29.9312 11.0872 30.0919 11.1148 30.2709 11.1148C30.4467 11.1148 30.5994 11.0888 30.7289 11.0368C30.86 10.9848 30.9615 10.9124 31.0334 10.8198C31.1053 10.7271 31.1413 10.6206 31.1413 10.5003C31.1413 10.3881 31.1085 10.2938 31.043 10.2174C30.979 10.141 30.8847 10.076 30.76 10.0224C30.637 9.96871 30.4859 9.91994 30.3069 9.87604L29.7722 9.73948C29.3581 9.63707 29.0312 9.47694 28.7914 9.25909C28.5517 9.04125 28.4326 8.74782 28.4342 8.37879C28.4326 8.07641 28.5117 7.81223 28.6716 7.58626C28.833 7.36029 29.0544 7.18391 29.3358 7.0571C29.6171 6.9303 29.9368 6.8669 30.2949 6.8669C30.6593 6.8669 30.9774 6.9303 31.2492 7.0571C31.5226 7.18391 31.7352 7.36029 31.887 7.58626C32.0389 7.81223 32.1172 8.07397 32.122 8.37147H31.1269Z" fill="black"/>
<path d="M32.8875 11.9293V6.93518H36.1965V7.80573H33.9258V8.99573H36.0262V9.86629H33.9258V11.0587H36.2061V11.9293H32.8875Z" fill="black"/>
<path d="M41.1294 6.93518V11.9293H40.2326L38.0961 8.78602H38.0602V11.9293H37.0219V6.93518H37.9331L40.0528 10.076H40.0959V6.93518H41.1294Z" fill="black"/>
<path d="M42.8336 11.9293H41.721L43.4163 6.93518H44.7543L46.4471 11.9293H45.3345L44.1044 8.07641H44.0661L42.8336 11.9293ZM42.7641 9.96627H45.3921V10.7905H42.7641V9.96627Z" fill="black"/>
<path d="M51.1402 8.6836H50.09C50.0708 8.54542 50.0316 8.42268 49.9725 8.31538C49.9133 8.20646 49.8374 8.1138 49.7447 8.03739C49.652 7.96098 49.5449 7.90246 49.4234 7.86182C49.3035 7.82118 49.1732 7.80085 49.0325 7.80085C48.7784 7.80085 48.557 7.86507 48.3683 7.9935C48.1797 8.1203 48.0335 8.30563 47.9295 8.54948C47.8256 8.79171 47.7737 9.08596 47.7737 9.43223C47.7737 9.78826 47.8256 10.0874 47.9295 10.3296C48.0351 10.5718 48.1821 10.7547 48.3707 10.8783C48.5594 11.0018 48.7776 11.0636 49.0253 11.0636C49.1644 11.0636 49.2931 11.0449 49.4114 11.0075C49.5313 10.9701 49.6376 10.9157 49.7303 10.8441C49.823 10.771 49.8997 10.6824 49.9605 10.5783C50.0228 10.4743 50.066 10.3556 50.09 10.2223L51.1402 10.2272C51.113 10.4564 51.0451 10.6775 50.9364 10.8905C50.8293 11.1018 50.6846 11.2912 50.5024 11.4586C50.3218 11.6245 50.106 11.7561 49.855 11.8537C49.6056 11.9496 49.3235 11.9976 49.0086 11.9976C48.5706 11.9976 48.1789 11.8968 47.8336 11.6952C47.49 11.4936 47.2182 11.2018 47.0184 10.8198C46.8202 10.4377 46.7211 9.97521 46.7211 9.43223C46.7211 8.88763 46.8218 8.4243 47.0232 8.04227C47.2246 7.66023 47.4979 7.36923 47.8432 7.16927C48.1885 6.96769 48.577 6.8669 49.0086 6.8669C49.2931 6.8669 49.5569 6.90754 49.7998 6.98882C50.0444 7.07011 50.261 7.18878 50.4496 7.34485C50.6383 7.49929 50.7917 7.68868 50.91 7.91303C51.0299 8.13737 51.1066 8.39423 51.1402 8.6836Z" fill="black"/>
<path d="M51.8847 11.9293V6.93518H52.923V9.13717H52.9877L54.7549 6.93518H55.9994L54.177 9.17131L56.021 11.9293H54.7789L53.4337 9.87604L52.923 10.5101V11.9293H51.8847Z" fill="black"/>
<path d="M57.3865 11.9293H56.2739L57.9692 6.93518H59.3071L61 11.9293H59.8874L58.6573 8.07641H58.619L57.3865 11.9293ZM57.317 9.96627H59.945V10.7905H57.317V9.96627Z" fill="black"/>
</g>
<defs>
<linearGradient id="paint0_linear_308_43" x1="0" y1="12" x2="15" y2="12" gradientUnits="userSpaceOnUse">
<stop stop-color="#7B5497"/>
<stop offset="1" stop-color="#2DA9DF"/>
</linearGradient>
<linearGradient id="paint1_linear_308_43" x1="0" y1="12" x2="15" y2="12" gradientUnits="userSpaceOnUse">
<stop stop-color="#7B5497"/>
<stop offset="1" stop-color="#2DA9DF"/>
</linearGradient>
<linearGradient id="paint2_linear_308_43" x1="0" y1="12" x2="15" y2="12" gradientUnits="userSpaceOnUse">
<stop stop-color="#7B5497"/>
<stop offset="1" stop-color="#2DA9DF"/>
</linearGradient>
<linearGradient id="paint3_linear_308_43" x1="0" y1="12" x2="15" y2="12" gradientUnits="userSpaceOnUse">
<stop stop-color="#7B5497"/>
<stop offset="1" stop-color="#2DA9DF"/>
</linearGradient>
<clipPath id="clip0_308_43">
<rect width="61" height="12" fill="white"/>
</clipPath>
</defs>
</svg>
