<svg width="60" height="12" viewBox="0 0 60 12" fill="none" xmlns="http://www.w3.org/2000/svg">
<path d="M6.52067 0.0536464C7.80728 0.245106 8.10596 0.428907 8.58844 1.35557C8.97136 2.09078 9.17813 2.82599 9.22408 3.65309C9.27003 4.3883 9.1475 5.45282 9.00965 5.53706C8.97136 5.56004 8.94072 5.5294 8.94072 5.46814C8.94072 5.40687 8.7799 5.03161 8.58078 4.64103C8.29742 4.05899 8.0983 3.79861 7.56987 3.26252C6.84232 2.53497 6.22199 2.14439 5.28001 1.83039C4.75924 1.65425 4.56777 1.63128 3.57984 1.63128C2.57659 1.63128 2.41576 1.64659 1.89499 1.83039L1.32061 2.02951L1.81841 1.56235C3.08204 0.375299 4.83582 -0.183764 6.52067 0.0536464Z" fill="#309B65"/>
<path d="M3.87852 8.04136C4.52183 9.02929 5.69356 9.95596 6.76574 10.3082C7.79962 10.6529 9.01731 10.6988 10.0129 10.4308C10.2427 10.3695 10.4341 10.3312 10.4494 10.3465C10.4954 10.3925 9.59169 11.0588 9.17047 11.2962C7.75367 12.085 5.83141 12.2228 4.27676 11.6485C3.78662 11.4647 3.74067 11.4264 3.47262 10.9822C3.31946 10.7218 3.09736 10.2317 2.99014 9.89469C2.80634 9.35095 2.78337 9.15949 2.77571 8.20984C2.77571 7.37508 2.80634 7.03811 2.91356 6.67816L3.05907 6.22632L3.30414 6.88494C3.44199 7.25254 3.70238 7.77332 3.87852 8.04136Z" fill="#309B65"/>
<path d="M4.84348 2.84896C5.72419 3.00213 5.82375 3.0634 5.40254 3.18593C4.88177 3.3391 3.94744 3.85987 3.51092 4.22748C2.60722 5.00097 1.94094 6.04252 1.66524 7.14533C1.46612 7.92648 1.46612 9.21309 1.66524 9.97128C1.74182 10.2623 1.79543 10.515 1.78012 10.5303C1.73417 10.5839 0.991301 9.63431 0.761549 9.23607C0.164193 8.17155 -0.111509 6.81602 0.0416591 5.6596C0.141218 4.93205 0.393946 4.07431 0.570089 3.86753C0.738574 3.67607 1.79543 3.14764 2.3162 3.00213C3.26585 2.72643 3.90149 2.68814 4.84348 2.84896Z" fill="#309B65"/>
<path d="M10.8936 2.27458C11.2765 2.80301 11.6671 3.63012 11.8509 4.30406C12.0654 5.13117 12.073 6.36417 11.8586 7.18362C11.6135 8.1256 11.491 8.32472 10.9472 8.63871C9.66061 9.38158 7.99874 9.5807 6.56662 9.14417L6.22199 9.04461L6.6432 8.90676C8.12893 8.41662 9.33896 7.37508 10.0206 5.98891C10.4571 5.10053 10.5796 4.54147 10.5796 3.49993C10.572 2.72643 10.5413 2.46604 10.3422 1.77679C10.2963 1.62362 10.2963 1.62362 10.4724 1.77679C10.5643 1.86103 10.7558 2.08312 10.8936 2.27458Z" fill="#309B65"/>
<path d="M20.2369 9.12885L20.2139 7.68907L20.1986 6.25695H16.5991V9.1748L15.6418 9.12885L15.6188 6.00423L15.6035 2.88725H16.5991V5.33794H20.1986V2.88725H21.1942V9.1748L20.2369 9.12885Z" fill="black"/>
<path fill-rule="evenodd" clip-rule="evenodd" d="M27.1601 2.9715C28.0255 3.27017 28.6688 3.85987 29.067 4.70995C29.2508 5.10819 29.2738 5.23073 29.2738 6.0272C29.2738 6.81602 29.2508 6.95387 29.067 7.34444C27.857 9.94064 23.8823 9.84108 22.879 7.19894C21.8681 4.54147 24.4184 2.03717 27.1601 2.9715ZM23.6602 6.16505C23.5836 5.10053 24.158 4.2045 25.1536 3.8369C25.5901 3.67607 26.6546 3.72968 27.0605 3.94411C27.8953 4.37298 28.3165 5.07756 28.3165 6.01954C28.3088 6.96153 27.9029 7.62781 27.0528 8.07965C26.7159 8.26345 26.5857 8.28643 25.9807 8.28643C25.4216 8.27877 25.2301 8.24814 24.9698 8.11029C24.1656 7.68907 23.7214 7.03811 23.6602 6.16505Z" fill="black"/>
<path d="M35.2473 9.12885L33.0111 9.15183L30.7672 9.16714V2.88725H31.7628V8.24814H35.2933L35.2473 9.12885Z" fill="black"/>
<path d="M36.3961 9.12885L36.3731 6.00423L36.3578 2.88725H37.3534V9.1748L36.3961 9.12885Z" fill="black"/>
<path d="M42.5075 2.95618C42.9747 3.07871 43.6409 3.34676 43.7788 3.46929C43.7941 3.48461 43.6946 3.66841 43.5644 3.87519L43.3193 4.25045L42.8138 4.01304C42.2165 3.73734 41.3281 3.64544 40.7614 3.80626C40.1564 3.97475 39.8654 4.52615 40.1564 4.93971C40.3325 5.19243 40.6388 5.32263 41.5655 5.5294C43.0819 5.87403 43.595 6.14973 43.8707 6.75475C44.537 8.20984 42.99 9.45817 40.8686 9.1748C40.1411 9.07525 39.1225 8.76125 38.8698 8.56213L38.7089 8.42428L38.9617 8.06433C39.1072 7.86522 39.2603 7.71971 39.2986 7.74268C41.0371 8.52384 42.5381 8.50087 42.9364 7.68142C43.0666 7.40571 42.9747 7.05343 42.7143 6.86197C42.6071 6.77772 42.048 6.60158 41.4736 6.45607C40.8992 6.31056 40.2559 6.11144 40.0415 6.01954C39.0612 5.59833 38.686 4.54147 39.2297 3.71436C39.7352 2.94852 41.1673 2.61921 42.5075 2.95618Z" fill="black"/>
<path d="M47.7688 3.80626L47.7535 6.46373L47.7305 9.12885L46.7732 9.1748V3.80626H44.6289V3.51524C44.6289 3.36208 44.6059 3.1553 44.5829 3.05574L44.537 2.88725H49.9132V3.80626H47.7688Z" fill="black"/>
<path d="M52.0422 6.00423L52.0192 9.12885H51.0236L51.0007 6.00423L50.9854 2.88725H52.0575L52.0422 6.00423Z" fill="black"/>
<path d="M57.8856 2.96384C58.146 3.05574 58.4446 3.17827 58.5595 3.25486C58.9195 3.48461 59.333 3.8369 59.3177 3.89051C59.3024 3.92114 59.1416 4.06665 58.9578 4.21216L58.6208 4.4802L58.2762 4.21982C57.6558 3.745 56.7828 3.60715 55.9633 3.85221C55.366 4.02836 54.7227 4.68698 54.5389 5.29965C53.8955 7.52825 56.3079 9.16715 58.2532 7.82693L58.6514 7.55122L58.9884 7.79629C59.1798 7.93414 59.333 8.07199 59.333 8.10263C59.333 8.20219 58.728 8.69998 58.4217 8.86081C57.0968 9.53475 55.4272 9.29734 54.401 8.29409C53.6735 7.58185 53.3212 6.51734 53.4897 5.53706C53.7041 4.27343 54.4776 3.36973 55.6953 2.94852C56.2467 2.75706 57.2882 2.76472 57.8856 2.96384Z" fill="black"/>
</svg>
