<svg width="88" height="16" viewBox="0 0 88 16" fill="none" xmlns="http://www.w3.org/2000/svg">
<path d="M1.63346 6.21733C1.77411 6.07669 2.00214 6.07669 2.14279 6.21733L9.78267 13.8572C9.92332 13.9979 9.92332 14.2259 9.78267 14.3665L8.25469 15.8945C8.11405 16.0352 7.88601 16.0352 7.74537 15.8945L0.105485 8.25463C-0.0351615 8.11399 -0.0351617 7.88595 0.105485 7.74531L1.63346 6.21733Z" fill="white"/>
<path d="M4.68944 3.16164C4.83009 3.02099 5.05812 3.02099 5.19877 3.16164L12.8387 10.8015C12.9793 10.9422 12.9793 11.1702 12.8387 11.3108L11.3107 12.8388C11.17 12.9795 10.942 12.9795 10.8014 12.8388L3.16147 5.19894C3.02082 5.05829 3.02082 4.83026 3.16147 4.68961L4.68944 3.16164Z" fill="white" fill-opacity="0.5"/>
<path d="M7.74537 0.105485C7.88601 -0.0351616 8.11405 -0.0351615 8.25469 0.105485L15.8946 7.74537C16.0352 7.88602 16.0352 8.11405 15.8946 8.2547L14.3666 9.78267C14.226 9.92332 13.9979 9.92332 13.8573 9.78267L6.21739 2.14279C6.07675 2.00214 6.07675 1.77411 6.21739 1.63346L7.74537 0.105485Z" fill="white" fill-opacity="0.25"/>
<path d="M20.0001 11.8393C20.0001 11.8854 20.0374 11.9227 20.0834 11.9227H22.142C22.1881 11.9227 22.2254 11.8854 22.2254 11.8393V8.07451C22.2254 7.98072 22.3563 7.95842 22.3873 8.04692L23.7273 11.8669C23.739 11.9003 23.7705 11.9227 23.8059 11.9227H25.5498C25.5851 11.9227 25.6167 11.9003 25.6284 11.8669L26.9569 8.08004C26.988 7.99154 27.1189 8.01384 27.1189 8.10763V11.8393C27.1189 11.8854 27.1562 11.9227 27.2022 11.9227H29.2609C29.3069 11.9227 29.3443 11.8854 29.3443 11.8393V4.20515C29.3443 4.15913 29.3069 4.12182 29.2609 4.12182H26.7218C26.6874 4.12182 26.6566 4.14296 26.6441 4.17503L24.7773 8.99143C24.75 9.06209 24.6501 9.06248 24.6222 8.99203L22.7118 4.17443C22.6992 4.14267 22.6685 4.12182 22.6343 4.12182H20.0834C20.0374 4.12182 20.0001 4.15913 20.0001 4.20515V11.8393Z" fill="white"/>
<path d="M32.7131 9.42583C32.7194 9.43784 32.7228 9.45122 32.7228 9.4648V11.8393C32.7228 11.8854 32.7601 11.9227 32.8061 11.9227H34.8761C34.9221 11.9227 34.9595 11.8854 34.9595 11.8393V9.4648C34.9595 9.45122 34.9628 9.43784 34.9691 9.42583L37.7105 4.24412C37.7399 4.18862 37.6997 4.12182 37.6369 4.12182H35.319C35.2867 4.12182 35.2573 4.14054 35.2435 4.16984L33.9336 6.97015C33.9037 7.03418 33.8126 7.03418 33.7827 6.97015L32.4727 4.16984C32.459 4.14054 32.4296 4.12182 32.3973 4.12182H30.0454C29.9826 4.12182 29.9424 4.18862 29.9717 4.24412L32.7131 9.42583Z" fill="white"/>
<path d="M40.6535 7.56271C40.6075 7.56271 40.5702 7.5254 40.5702 7.47938V5.9531C40.5702 5.90707 40.6075 5.86976 40.6535 5.86976H41.4558C42.1256 5.86976 42.3982 6.20171 42.3982 6.72176C42.3982 7.23076 42.1256 7.56271 41.4558 7.56271H40.6535ZM44.6689 6.72176C44.6689 5.21691 43.6584 4.12146 41.6715 4.12146H38.4282C38.3822 4.12146 38.3449 4.15877 38.3449 4.2048V11.839C38.3449 11.885 38.3822 11.9223 38.4282 11.9223H40.4868C40.5329 11.9223 40.5702 11.885 40.5702 11.839V9.37215C40.5702 9.32612 40.6075 9.28881 40.6535 9.28881H41.6715C43.7038 9.28881 44.6689 8.08276 44.6689 6.72176Z" fill="white"/>
<path d="M53.3856 7.99445C53.3856 5.6487 51.5694 4 49.2868 4C47.0163 4 45.1769 5.6487 45.1769 7.99445C45.1769 10.3402 47.0163 12 49.2868 12C51.5576 12 53.3856 10.3402 53.3856 7.99445ZM47.4477 7.99445C47.4477 6.76625 48.1289 5.9917 49.2868 5.9917C50.434 5.9917 51.1261 6.76625 51.1261 7.99445C51.1261 9.20055 50.434 9.98615 49.2868 9.98615C48.1289 9.98615 47.4477 9.20055 47.4477 7.99445Z" fill="white"/>
<path d="M54.3559 4.12146C54.3099 4.12146 54.2726 4.15877 54.2726 4.2048V11.839C54.2726 11.885 54.3099 11.9223 54.3559 11.9223H58.9011C58.9472 11.9223 58.9845 11.885 58.9845 11.839V10.3459C58.9845 10.2999 58.9472 10.2626 58.9011 10.2626H56.5811C56.535 10.2626 56.4977 10.2253 56.4977 10.1792V4.2048C56.4977 4.15877 56.4604 4.12146 56.4144 4.12146H54.3559Z" fill="white"/>
<path d="M59.7361 11.839C59.7361 11.885 59.7734 11.9223 59.8195 11.9223H61.8784C61.9244 11.9223 61.9617 11.885 61.9617 11.839V4.2048C61.9617 4.15877 61.9244 4.12146 61.8784 4.12146H59.8195C59.7734 4.12146 59.7361 4.15877 59.7361 4.2048V11.839Z" fill="white"/>
<path d="M62.6723 5.76428C62.6723 5.8103 62.7096 5.84761 62.7556 5.84761H64.7007C64.7467 5.84761 64.784 5.88492 64.784 5.93095V11.839C64.784 11.885 64.8213 11.9223 64.8673 11.9223H66.9263C66.9723 11.9223 67.0096 11.885 67.0096 11.839V5.93095C67.0096 5.88492 67.0469 5.84761 67.0929 5.84761H69.0606C69.1066 5.84761 69.1439 5.8103 69.1439 5.76428V4.2048C69.1439 4.15877 69.1066 4.12146 69.0606 4.12146H62.7556C62.7096 4.12146 62.6723 4.15877 62.6723 4.2048V5.76428Z" fill="white"/>
<path d="M69.8539 11.8393C69.8539 11.8854 69.8913 11.9227 69.9373 11.9227H71.9957C72.0417 11.9227 72.079 11.8854 72.079 11.8393V4.20515C72.079 4.15913 72.0417 4.12182 71.9957 4.12182H69.9373C69.8913 4.12182 69.8539 4.15913 69.8539 4.20515V11.8393Z" fill="white"/>
<path d="M72.9605 8.00568C72.9605 10.3404 74.5387 11.978 76.9459 11.978C78.9168 11.978 80.3306 10.8924 80.7594 9.18055C80.7724 9.12876 80.7328 9.07898 80.6794 9.07898H78.4399C78.4079 9.07898 78.3789 9.09737 78.3642 9.12573C78.0751 9.68246 77.5526 9.98628 76.9116 9.98628C75.8901 9.98628 75.22 9.21173 75.22 8.00568C75.22 6.81063 75.8901 6.03608 76.9116 6.03608C77.5526 6.03608 78.0751 6.33994 78.3642 6.89667C78.3789 6.92503 78.4079 6.94343 78.4399 6.94343H80.6794C80.7328 6.94343 80.7724 6.89364 80.7594 6.84186C80.3306 5.12997 78.9168 4.04438 76.9459 4.04438C74.5387 4.04438 72.9605 5.68203 72.9605 8.00568Z" fill="white"/>
<path d="M87.7298 9.55465C87.7298 7.05395 83.8809 7.43015 83.8809 6.26835C83.8809 5.8921 84.142 5.704 84.4714 5.7151C84.8569 5.7151 85.1519 5.91228 85.2027 6.34385C85.2079 6.38807 85.2442 6.42325 85.2887 6.42325H87.54C87.5877 6.42325 87.6257 6.38285 87.6219 6.3353C87.502 4.8411 86.3094 4 84.5053 4C82.8137 4 81.508 4.8188 81.508 6.3458C81.4736 9.0567 85.3569 8.47025 85.3682 9.7206C85.3682 10.0858 85.0614 10.2849 84.6643 10.2849C84.2738 10.2849 83.9353 10.1033 83.8662 9.57629C83.8606 9.53312 83.8247 9.4993 83.7811 9.4993H81.5729C81.5251 9.4993 81.487 9.53999 81.491 9.58764C81.6256 11.1994 82.9927 12 84.7438 12C86.6401 12 87.7298 10.9267 87.7298 9.55465Z" fill="white"/>
</svg>
