<svg width="96" height="16" viewBox="0 0 96 16" fill="none" xmlns="http://www.w3.org/2000/svg">
<path d="M1.82079 0.932552C1.78042 0.964852 1.75619 2.83821 1.75619 5.09916V9.20117H3.7749L3.79105 7.72348L3.81527 6.25386L4.98612 6.20541C5.96317 6.17311 6.22157 6.13274 6.56071 5.97931C7.16632 5.70477 7.61044 5.30103 7.86883 4.77617C8.06263 4.37243 8.09493 4.219 8.09493 3.58917C8.09493 2.66864 7.89305 2.17607 7.31167 1.65121C6.63338 1.03753 6.20542 0.948702 3.85564 0.908328C2.76554 0.884104 1.85309 0.892178 1.82079 0.932552ZM5.7613 2.85436C6.01162 3.10468 6.03585 3.17735 6.03585 3.58917C6.03585 4.00098 6.01162 4.07366 5.7613 4.32398L5.48676 4.59852H3.7749V2.57982H5.48676L5.7613 2.85436Z" fill="black"/>
<path d="M12.8833 9.41111L12.8591 11.9708L10.1944 7.90112L8.84588 9.28999L7.48931 10.6789V15.1765H9.50802L9.52417 12.6572L9.54839 10.1459L12.8994 15.1765H14.9181V6.85947H12.8994L12.8833 9.41111Z" fill="black"/>
<path fill-rule="evenodd" clip-rule="evenodd" d="M0.316869 15.6831C-0.105623 15.2606 -0.105623 14.5756 0.316869 14.1532L14.1532 0.316868C14.5756 -0.105623 15.2606 -0.105623 15.6831 0.316868C16.1056 0.73936 16.1056 1.42435 15.6831 1.84684L1.84684 15.6831C1.42435 16.1056 0.73936 16.1056 0.316869 15.6831Z" fill="#EE7003"/>
<path d="M24.873 12V3.41016H27.6562C28.7109 3.41016 29.3984 3.45312 29.7188 3.53906C30.2109 3.66797 30.623 3.94922 30.9551 4.38281C31.2871 4.8125 31.4531 5.36914 31.4531 6.05273C31.4531 6.58008 31.3574 7.02344 31.166 7.38281C30.9746 7.74219 30.7305 8.02539 30.4336 8.23242C30.1406 8.43555 29.8418 8.57031 29.5371 8.63672C29.123 8.71875 28.5234 8.75977 27.7383 8.75977H26.6074V12H24.873ZM26.6074 4.86328V7.30078H27.5566C28.2402 7.30078 28.6973 7.25586 28.9277 7.16602C29.1582 7.07617 29.3379 6.93555 29.4668 6.74414C29.5996 6.55273 29.666 6.33008 29.666 6.07617C29.666 5.76367 29.5742 5.50586 29.3906 5.30273C29.207 5.09961 28.9746 4.97266 28.6934 4.92188C28.4863 4.88281 28.0703 4.86328 27.4453 4.86328H26.6074ZM32.4844 8.80078C32.4844 8.25391 32.6191 7.72461 32.8887 7.21289C33.1582 6.70117 33.5391 6.31055 34.0312 6.04102C34.5273 5.77148 35.0801 5.63672 35.6895 5.63672C36.6309 5.63672 37.4023 5.94336 38.0039 6.55664C38.6055 7.16602 38.9062 7.9375 38.9062 8.87109C38.9062 9.8125 38.6016 10.5938 37.9922 11.2148C37.3867 11.832 36.623 12.1406 35.7012 12.1406C35.1309 12.1406 34.5859 12.0117 34.0664 11.7539C33.5508 11.4961 33.1582 11.1191 32.8887 10.623C32.6191 10.123 32.4844 9.51562 32.4844 8.80078ZM34.1719 8.88867C34.1719 9.50586 34.3184 9.97852 34.6113 10.3066C34.9043 10.6348 35.2656 10.7988 35.6953 10.7988C36.125 10.7988 36.4844 10.6348 36.7734 10.3066C37.0664 9.97852 37.2129 9.50195 37.2129 8.87695C37.2129 8.26758 37.0664 7.79883 36.7734 7.4707C36.4844 7.14258 36.125 6.97852 35.6953 6.97852C35.2656 6.97852 34.9043 7.14258 34.6113 7.4707C34.3184 7.79883 34.1719 8.27148 34.1719 8.88867ZM40.2012 12V3.41016H41.8477V12H40.2012ZM43.541 4.93359V3.41016H45.1875V4.93359H43.541ZM43.541 12V5.77734H45.1875V12H43.541ZM49.7344 5.77734V7.08984H48.6094V9.59766C48.6094 10.1055 48.6191 10.4023 48.6387 10.4883C48.6621 10.5703 48.7109 10.6387 48.7852 10.6934C48.8633 10.748 48.957 10.7754 49.0664 10.7754C49.2188 10.7754 49.4395 10.7227 49.7285 10.6172L49.8691 11.8945C49.4863 12.0586 49.0527 12.1406 48.5684 12.1406C48.2715 12.1406 48.0039 12.0918 47.7656 11.9941C47.5273 11.8926 47.3516 11.7637 47.2383 11.6074C47.1289 11.4473 47.0527 11.2324 47.0098 10.9629C46.9746 10.7715 46.957 10.3848 46.957 9.80273V7.08984H46.2012V5.77734H46.957V4.54102L48.6094 3.58008V5.77734H49.7344ZM50.877 4.93359V3.41016H52.5234V4.93359H50.877ZM50.877 12V5.77734H52.5234V12H50.877ZM59.6426 7.61719L58.0195 7.91016C57.9648 7.58594 57.8398 7.3418 57.6445 7.17773C57.4531 7.01367 57.2031 6.93164 56.8945 6.93164C56.4844 6.93164 56.1562 7.07422 55.9102 7.35938C55.668 7.64062 55.5469 8.11328 55.5469 8.77734C55.5469 9.51562 55.6699 10.0371 55.916 10.3418C56.166 10.6465 56.5 10.7988 56.918 10.7988C57.2305 10.7988 57.4863 10.7109 57.6855 10.5352C57.8848 10.3555 58.0254 10.0488 58.1074 9.61523L59.7246 9.89062C59.5566 10.6328 59.2344 11.1934 58.7578 11.5723C58.2812 11.9512 57.6426 12.1406 56.8418 12.1406C55.9316 12.1406 55.2051 11.8535 54.6621 11.2793C54.123 10.7051 53.8535 9.91016 53.8535 8.89453C53.8535 7.86719 54.125 7.06836 54.668 6.49805C55.2109 5.92383 55.9453 5.63672 56.8711 5.63672C57.6289 5.63672 58.2305 5.80078 58.6758 6.12891C59.125 6.45312 59.4473 6.94922 59.6426 7.61719ZM60.3164 10.2246L61.9688 9.97266C62.0391 10.293 62.1816 10.5371 62.3965 10.7051C62.6113 10.8691 62.9121 10.9512 63.2988 10.9512C63.7246 10.9512 64.0449 10.873 64.2598 10.7168C64.4043 10.6074 64.4766 10.4609 64.4766 10.2773C64.4766 10.1523 64.4375 10.0488 64.3594 9.9668C64.2773 9.88867 64.0938 9.81641 63.8086 9.75C62.4805 9.45703 61.6387 9.18945 61.2832 8.94727C60.791 8.61133 60.5449 8.14453 60.5449 7.54688C60.5449 7.00781 60.7578 6.55469 61.1836 6.1875C61.6094 5.82031 62.2695 5.63672 63.1641 5.63672C64.0156 5.63672 64.6484 5.77539 65.0625 6.05273C65.4766 6.33008 65.7617 6.74023 65.918 7.2832L64.3652 7.57031C64.2988 7.32812 64.1719 7.14258 63.9844 7.01367C63.8008 6.88477 63.5371 6.82031 63.1934 6.82031C62.7598 6.82031 62.4492 6.88086 62.2617 7.00195C62.1367 7.08789 62.0742 7.19922 62.0742 7.33594C62.0742 7.45312 62.1289 7.55273 62.2383 7.63477C62.3867 7.74414 62.8984 7.89844 63.7734 8.09766C64.6523 8.29688 65.2656 8.54102 65.6133 8.83008C65.957 9.12305 66.1289 9.53125 66.1289 10.0547C66.1289 10.625 65.8906 11.1152 65.4141 11.5254C64.9375 11.9355 64.2324 12.1406 63.2988 12.1406C62.4512 12.1406 61.7793 11.9688 61.2832 11.625C60.791 11.2812 60.4688 10.8145 60.3164 10.2246ZM70.9453 12V3.41016H72.6328L76.1484 9.14648V3.41016H77.7598V12H76.0195L72.5566 6.39844V12H70.9453ZM79.207 8.80078C79.207 8.25391 79.3418 7.72461 79.6113 7.21289C79.8809 6.70117 80.2617 6.31055 80.7539 6.04102C81.25 5.77148 81.8027 5.63672 82.4121 5.63672C83.3535 5.63672 84.125 5.94336 84.7266 6.55664C85.3281 7.16602 85.6289 7.9375 85.6289 8.87109C85.6289 9.8125 85.3242 10.5938 84.7148 11.2148C84.1094 11.832 83.3457 12.1406 82.4238 12.1406C81.8535 12.1406 81.3086 12.0117 80.7891 11.7539C80.2734 11.4961 79.8809 11.1191 79.6113 10.623C79.3418 10.123 79.207 9.51562 79.207 8.80078ZM80.8945 8.88867C80.8945 9.50586 81.041 9.97852 81.334 10.3066C81.627 10.6348 81.9883 10.7988 82.418 10.7988C82.8477 10.7988 83.207 10.6348 83.4961 10.3066C83.7891 9.97852 83.9355 9.50195 83.9355 8.87695C83.9355 8.26758 83.7891 7.79883 83.4961 7.4707C83.207 7.14258 82.8477 6.97852 82.418 6.97852C81.9883 6.97852 81.627 7.14258 81.334 7.4707C81.041 7.79883 80.8945 8.27148 80.8945 8.88867ZM88.084 12L86.1152 5.77734H87.7148L88.8809 9.85547L89.9531 5.77734H91.541L92.5781 9.85547L93.7676 5.77734H95.3906L93.3926 12H91.8105L90.7383 7.99805L89.6836 12H88.084Z" fill="black"/>
</svg>
