<svg width="64" height="12" viewBox="0 0 64 12" fill="none" xmlns="http://www.w3.org/2000/svg">
<path d="M24.6774 1.27809C24.1662 1.3988 23.8041 1.73963 22.9946 2.87572C22.4194 3.68519 22.0147 4.79288 22.0147 5.58815C22.0147 5.73726 21.9792 5.98578 21.9437 6.14199C21.8159 6.70294 22.1496 8.03785 22.5544 8.57039C22.7958 8.88992 23.52 9.42247 23.8254 9.50767C24.1591 9.59998 25.0751 9.36566 25.4159 9.11004C25.9129 8.74081 26.4881 7.98815 26.4881 7.71832C26.4881 7.59051 26.1899 7.31359 26.0549 7.31359C25.8845 7.31359 25.4727 7.78223 25.352 8.11596C25.2597 8.36448 25.1816 8.44258 24.8549 8.6059C24.3721 8.84022 24.1875 8.81181 23.7402 8.42838C23.1153 7.87454 22.8384 6.97986 22.881 5.64495C22.9023 4.79288 22.9023 4.78578 23.2289 4.11122C23.4135 3.74199 23.6691 3.28755 23.797 3.11004C23.9319 2.92542 24.1165 2.6627 24.2159 2.52069C24.5212 2.08045 24.997 1.93134 25.3449 2.17276C25.5153 2.29347 25.7922 2.84732 25.8845 3.25205C26.0265 3.92661 26.5591 3.8059 26.5591 3.09584C26.5591 2.33607 26.2325 1.79643 25.565 1.4627C25.1603 1.25679 24.9473 1.21418 24.6774 1.27809Z" fill="#4F129E"/>
<path d="M59.3423 1.7468C59.0299 2.00952 58.8879 2.21543 58.5897 2.79768C57.7589 4.45212 57.6098 5.48171 58.1778 5.70893C58.3127 5.76573 58.8453 5.82253 59.4417 5.84384C60.0098 5.85804 60.5423 5.91484 60.6204 5.95745C61.1104 6.21307 61.1104 7.56218 60.6204 8.30064C60.4145 8.61307 59.8891 8.79058 59.5482 8.66277C59.4417 8.62727 59.2358 8.59177 59.0938 8.59177C58.8737 8.59177 58.8027 8.62727 58.7033 8.79768C58.5471 9.06751 58.5542 9.17401 58.7388 9.40833C58.8808 9.59295 58.9092 9.60005 59.392 9.57165C59.7258 9.55035 60.0027 9.47934 60.2157 9.37283C60.6133 9.16691 61.1956 8.56336 61.4228 8.12313C61.5861 7.8036 61.6003 7.70419 61.5932 6.85212C61.5932 6.14916 61.5577 5.86514 61.4725 5.66632C61.2666 5.21898 61.1104 5.16218 59.9601 5.11248C58.7033 5.06277 58.6252 5.01307 58.6891 4.40952C58.7388 4.01188 59.0299 3.32313 59.4204 2.69827C59.5624 2.47816 59.6761 2.37165 59.8039 2.35745C60.0382 2.32904 60.0879 2.44975 60.1376 3.15981L60.1802 3.72786L60.4287 3.74916C60.7624 3.78467 60.8548 3.63555 60.8548 3.0391C60.8548 2.35035 60.734 1.94561 60.45 1.66159C60.1021 1.30656 59.8394 1.32786 59.3423 1.7468Z" fill="#4F129E"/>
<path d="M19.1034 1.57639C18.8904 1.61189 18.6348 1.62609 18.5354 1.60479C18.2585 1.55508 16.9662 1.6971 16.6892 1.81071C16.249 1.98822 16.0005 2.00242 15.5531 1.87461C15.1839 1.7681 15.0845 1.7681 14.836 1.84621C14.4383 1.98112 14.3957 2.05923 14.4454 2.57047C14.5733 4.04029 14.5662 5.58822 14.4241 6.74562C14.346 7.39177 14.2324 8.05923 14.1756 8.22964C14.1117 8.40006 14.062 8.71248 14.062 8.9255C14.062 9.45804 14.2608 9.65686 14.7934 9.65686C15.333 9.65686 15.9011 9.54325 16.7602 9.27343C17.3212 9.08881 17.7259 9.01071 18.4005 8.961C18.8975 8.9184 19.4159 8.84029 19.5579 8.77639C20.0265 8.57757 20.0549 8.02372 19.5934 8.02372C19.4727 8.02372 19.0679 8.08763 18.6916 8.15864C18.3082 8.23674 17.7969 8.33615 17.5413 8.37875C17.2857 8.42136 16.8596 8.51366 16.5827 8.58467C15.4111 8.8971 15.3898 8.8971 15.2549 8.72668C15.0774 8.51366 15.0916 8.03082 15.3046 7.20006C15.5673 6.15627 15.5318 6.20597 16.1354 6.10656C16.7318 6.00716 17.0088 5.88645 17.1224 5.67343C17.1792 5.55272 17.1721 5.49591 17.0656 5.3823C16.952 5.24739 16.8809 5.24029 16.3484 5.2829L15.7591 5.3255L15.6454 5.06278C15.5105 4.72905 15.4395 3.45094 15.546 3.18112C15.6525 2.9042 15.8727 2.78349 16.6963 2.58467C17.2218 2.45686 17.7401 2.38585 18.4999 2.35035C19.6786 2.29355 19.8845 2.22964 19.8845 1.93142C19.8845 1.55508 19.707 1.47698 19.1034 1.57639Z" fill="#4F129E"/>
<path d="M31.9553 1.67577C31.6216 1.71837 31.2808 1.78938 31.2098 1.82488C30.9115 1.98109 30.5352 1.99529 30.1092 1.87458C29.747 1.77517 29.6405 1.76807 29.3565 1.84618C28.8879 1.98109 28.8595 2.1018 29.0086 3.2521C29.1222 4.06867 29.1293 4.33849 29.0583 5.34677C28.9589 6.75269 28.8666 7.44855 28.6819 8.24381C28.5115 8.96097 28.547 9.3089 28.8098 9.51482C29.1293 9.76334 29.9459 9.68523 31.2453 9.2734C31.792 9.09588 32.2322 9.01068 32.8926 8.95387C33.8157 8.87577 34.0997 8.80476 34.3127 8.61304C34.5683 8.38583 34.4263 8.0237 34.0926 8.0237C33.8512 8.0237 32.5518 8.27932 30.3222 8.77636C29.7044 8.91127 29.6547 8.85446 29.7044 8.0237C29.7399 7.43435 29.9743 6.35506 30.0879 6.24145C30.1163 6.21304 30.3648 6.14914 30.6346 6.10654C31.3021 6.00003 31.5861 5.87222 31.6429 5.6521C31.7281 5.30417 31.5719 5.23316 30.9115 5.28287C30.3293 5.32547 30.3222 5.32547 30.2015 5.13375C30.095 4.97044 30.0737 4.77872 30.0737 3.99056C30.0737 3.07458 30.0808 3.03908 30.2441 2.91837C30.3364 2.84736 30.7411 2.69825 31.1317 2.59174C31.7068 2.43553 32.076 2.38583 32.9991 2.35032C33.7802 2.31482 34.1778 2.27222 34.2559 2.20831C34.3766 2.1089 34.405 1.80358 34.3127 1.65446C34.2488 1.55506 32.7861 1.56216 31.9553 1.67577Z" fill="#4F129E"/>
<path d="M46.7246 1.66863C46.3909 1.71124 46.0571 1.78224 45.979 1.82485C45.6808 1.98816 45.2406 2.00236 44.8358 1.87455C44.4737 1.76094 44.4027 1.76094 44.14 1.85325C43.7068 2.00236 43.6642 2.14437 43.7921 3.12426C43.9696 4.49467 43.8205 6.72426 43.4512 8.28639C43.2879 8.95384 43.3447 9.35858 43.6216 9.55029C43.9199 9.76331 44.7577 9.6639 46.05 9.26627C46.6039 9.09585 47.0796 9.00355 47.7045 8.94674C48.8619 8.84733 49.2524 8.67692 49.1956 8.30059C49.1601 8.03787 48.9826 7.98106 48.4855 8.07337C46.6536 8.4071 46.0784 8.52071 46.0145 8.55621C45.979 8.57751 45.6595 8.65562 45.2974 8.73372C44.4382 8.91834 44.424 8.90414 44.4737 8.09467C44.5163 7.46272 44.5234 7.42721 44.6441 7.02958C44.6867 6.89467 44.7435 6.66035 44.7719 6.51834C44.7932 6.36923 44.8358 6.23431 44.8713 6.22011C44.8997 6.19881 45.1625 6.14201 45.4536 6.0994C46.0926 6 46.3554 5.87929 46.4122 5.64497C46.4974 5.31124 46.3412 5.23313 45.6808 5.28284C45.1057 5.32544 45.0915 5.32544 44.9708 5.13372C44.8713 4.99171 44.8429 4.75029 44.8216 4.05443C44.7861 2.89704 44.7861 2.89704 45.837 2.62011C46.4619 2.4497 46.8453 2.39999 47.7684 2.35739C48.5353 2.31479 48.9542 2.26508 49.0252 2.20828C49.1601 2.09467 49.1743 1.75384 49.0536 1.64733C48.94 1.55502 47.527 1.56923 46.7246 1.66863Z" fill="#4F129E"/>
<path d="M3.29744 1.7894C3.14122 1.88171 2.73649 2.10892 2.39566 2.29354C2.05483 2.48526 1.74241 2.69827 1.7069 2.77638C1.6643 2.84739 1.60039 3.46514 1.55779 4.13259C1.50099 5.18348 1.30217 7.34206 1.16726 8.35035C1.12465 8.69117 1.25247 9.25922 1.39448 9.37993C1.47258 9.44384 1.52939 9.43674 1.643 9.33023C1.94122 9.06751 1.95542 8.91129 1.99803 6.71011C2.00513 6.47579 2.05483 6.04265 2.11874 5.75153C2.17554 5.4604 2.22525 4.97756 2.21815 4.67934C2.20394 4.08289 2.36016 3.22372 2.50217 3.08171C2.69389 2.88999 3.43235 2.55626 3.65957 2.55626C3.78738 2.55626 4.0075 2.63437 4.16371 2.74088C4.88087 3.21662 4.87377 3.65685 4.12821 4.35271C3.73057 4.72904 3.46785 4.85685 2.95661 4.94916C2.65838 4.99887 2.59448 5.03437 2.54477 5.19768C2.44537 5.48881 2.60868 5.77993 2.8856 5.80833C3.26193 5.84384 4.69625 4.72904 4.98738 4.161C5.41341 3.33733 5.37791 2.85449 4.84537 2.26514C4.49744 1.8746 4.0927 1.63319 3.78738 1.63319C3.67377 1.63319 3.46075 1.70419 3.29744 1.7894Z" fill="#4F129E"/>
<path d="M8.97078 1.70421C8.62285 1.78232 8.22522 2.05214 7.69978 2.55628L7.21694 3.01782L7.20984 3.51486C7.20273 3.78468 7.23114 4.18942 7.26664 4.40244C7.30214 4.61545 7.35185 5.65214 7.38735 6.71013C7.43705 8.62019 7.50096 9.06752 7.72818 9.31605C7.87729 9.49356 7.91279 9.47936 8.04771 9.19534C8.15421 8.96812 8.15421 8.90421 8.06191 8.49948C7.998 8.25806 7.9341 7.66871 7.90569 7.19297C7.85599 6.15628 7.90569 6.02847 8.42404 5.90066C8.60865 5.85096 8.87847 5.75155 9.02759 5.67344C9.27611 5.55273 9.32581 5.54563 9.53883 5.63794C10.1069 5.87226 10.7814 7.03676 11.3992 8.87581C11.5341 9.27344 11.5767 9.33735 11.7258 9.33735C12.1518 9.33735 12.166 8.47818 11.7613 7.49829C11.172 6.07818 10.8666 5.53853 10.3554 4.99889C9.78735 4.40244 9.78735 4.40954 10.1282 3.62137C10.4619 2.84031 10.3838 2.00954 9.95776 1.78232C9.77315 1.68291 9.2406 1.64031 8.97078 1.70421ZM9.67374 2.57048C9.72345 2.66279 9.75895 2.92551 9.76605 3.15983C9.76605 3.74918 9.52463 4.05451 8.89978 4.26752C8.65836 4.34563 8.37433 4.47344 8.27492 4.55865C8.17552 4.63676 8.04771 4.68646 7.998 4.66516C7.87729 4.61545 7.77788 3.9338 7.84179 3.61427C7.89149 3.34445 8.40984 2.7267 8.73646 2.55628C9.09859 2.35747 9.56013 2.37167 9.67374 2.57048Z" fill="#4F129E"/>
<path d="M54.8761 2.05921C54.656 2.18702 54.656 2.51364 54.869 3.2095C55.0536 3.83435 55.0678 3.94086 55.0678 5.18347C55.0678 6.60359 55.0039 7.22134 54.8619 7.42725C54.7838 7.53376 54.7412 7.54086 54.656 7.46986C54.5353 7.36335 54.166 6.61779 54.0382 6.21305C53.7116 5.19057 52.5897 2.98228 52.3199 2.83317C52.1424 2.74086 51.8512 2.91128 51.8086 3.1456C51.7873 3.2308 51.7589 3.68524 51.7376 4.15388C51.7163 4.62252 51.6169 5.5669 51.5175 6.24856C51.3613 7.29234 51.3329 7.66157 51.3613 8.55625C51.3968 9.94086 51.5246 10.2391 51.9578 10.0048C52.2986 9.82015 52.4619 9.25211 52.2986 8.78347C52.043 8.04501 52.2631 4.97045 52.5755 4.97045C52.6323 4.97045 52.8098 5.32548 53.0086 5.83672C53.7471 7.73258 54.3507 8.88998 54.7199 9.1314C54.8903 9.24501 54.9116 9.24501 55.082 9.1101C55.4725 8.81897 55.5436 8.65566 55.6075 7.80359C55.643 7.35625 55.6714 6.05684 55.6785 4.92075C55.6856 3.1527 55.6643 2.79057 55.5649 2.48524C55.4157 2.03791 55.1743 1.88879 54.8761 2.05921Z" fill="#4F129E"/>
<path d="M36.997 2.24384C36.8265 2.34325 36.6206 2.47106 36.5496 2.54916C36.4289 2.66987 36.4289 2.68408 36.5354 2.79768C36.5993 2.86159 36.7342 2.91129 36.8408 2.91129C37.139 2.91129 37.2029 2.9965 37.2881 3.44384C37.4443 4.28171 37.2455 7.70419 36.997 8.60597C36.9544 8.74798 36.8336 8.9326 36.7271 9.0107C36.3863 9.27342 36.3579 9.30183 36.3579 9.47224C36.3579 9.67816 36.6703 9.82727 36.9686 9.76337C38.3106 9.46514 38.6727 9.33733 39.3047 8.91839C40.1922 8.32195 40.6538 7.832 40.9804 7.13615C41.3851 6.26987 41.4348 6.02135 41.2999 5.3255C41.1508 4.53023 40.7106 3.63555 40.2348 3.15982C39.6455 2.56337 38.3887 2.04502 37.6005 2.06632C37.4443 2.07342 37.1745 2.15153 36.997 2.24384ZM38.6656 3.032C39.0703 3.21662 39.5745 3.53615 39.7662 3.72076C40.1709 4.09709 40.6893 5.3397 40.6893 5.92905C40.6893 6.49709 40.2916 7.42017 39.823 7.92431C39.4964 8.27934 38.3248 8.90419 38.055 8.86159C37.8987 8.84029 37.8845 8.80479 37.8632 8.34325C37.849 8.06632 37.8774 7.22135 37.9271 6.46159C37.9768 5.70183 38.0194 4.61544 38.0265 4.04739C38.0265 3.47934 38.0621 2.9752 38.0905 2.9255C38.1473 2.82609 38.3035 2.85449 38.6656 3.032Z" fill="#4F129E"/>
</svg>
