<svg width="82" height="32" viewBox="0 0 82 32" fill="none" xmlns="http://www.w3.org/2000/svg">
<path d="M0 11.4011V22.8111L6.89617 27.4055L13.7923 32L20.6885 27.4055L27.5847 22.8111V11.4011V1.61398e-06H22.6409H17.6882L15.7448 1.94347L13.7923 3.89589L11.8399 1.94347L9.89645 1.61398e-06H4.94375H0V11.4011ZM11.4817 3.9138L13.7923 6.22446L16.103 3.9138L18.4047 1.61209L22.1662 1.63L25.9278 1.65687L25.9547 11.7862L25.9726 21.9155L19.8825 25.9726L13.7923 30.0297L7.81864 26.0532C4.54072 23.8679 1.80017 22.023 1.72852 21.9603C1.63 21.8617 1.61209 20.0705 1.61209 11.7862C1.61209 6.26029 1.63896 1.70165 1.67478 1.67478C1.70165 1.63896 3.4033 1.61209 5.45424 1.61209H9.17996L11.4817 3.9138Z" fill="#0029B7"/>
<path d="M5.76797 4.49607C5.61572 4.54981 5.2933 4.73788 5.05149 4.917C3.7439 5.90217 3.7439 7.97998 5.05149 8.96514C5.28435 9.14426 5.63363 9.33234 5.82171 9.39503C6.24265 9.52042 7.16512 9.52042 7.48754 9.40399C7.72935 9.30547 7.80996 9.37712 10.3624 11.9296L12.9866 14.5537V18.0108V21.4768L12.7537 21.5305C12.6194 21.5663 12.279 21.826 11.9924 22.1126C11.5805 22.5246 11.4461 22.7396 11.3297 23.1515C10.9625 24.3875 11.4999 25.6503 12.6552 26.2593C13.1925 26.5548 14.3927 26.5548 14.93 26.2593C16.4705 25.4443 16.8556 23.4919 15.7182 22.2291C15.4943 21.9783 15.145 21.7007 14.9569 21.6201L14.5986 21.4588V18.0108V14.5537L17.2228 11.9296C19.7753 9.37712 19.8559 9.30547 20.0977 9.40399C20.4201 9.52042 21.3426 9.52042 21.7635 9.39503C21.9516 9.33234 22.3009 9.14426 22.5337 8.96514C23.7428 8.06058 23.8503 6.20668 22.7755 5.13195C22.274 4.63041 21.8351 4.44233 21.0381 4.40651C20.1604 4.36173 19.5961 4.58563 19.0409 5.2036C18.396 5.92008 18.19 6.92316 18.4945 7.80086L18.6378 8.18597L16.2107 10.6131L13.7926 13.0312L11.3745 10.6131L8.94738 8.18597L9.09067 7.80086C9.39518 6.93212 9.18919 5.93799 8.57122 5.23047C8.05177 4.64832 7.46963 4.3886 6.67254 4.39755C6.33221 4.40651 5.92023 4.45129 5.76797 4.49607ZM7.29946 5.94695C7.99803 6.40371 8.00699 7.46948 7.30842 7.92624C6.2516 8.61586 4.97984 7.37992 5.64259 6.31415C5.98292 5.75887 6.75314 5.58871 7.29946 5.94695ZM21.4859 5.89321C21.8441 6.08129 22.1217 6.54701 22.1217 6.94107C22.1217 7.61278 21.4859 8.19492 20.841 8.11432C20.1783 8.03371 19.7663 7.58591 19.7663 6.93212C19.7663 6.45745 19.9812 6.11712 20.429 5.89321C20.8231 5.68723 21.1097 5.68723 21.4859 5.89321ZM14.33 22.8829C14.7509 23.1068 14.9569 23.4381 14.9569 23.9218C14.9569 24.28 14.9121 24.4143 14.6793 24.6651C14.527 24.8442 14.2673 25.0234 14.0971 25.0681C13.6672 25.1846 13.2373 25.0413 12.906 24.6651C12.5298 24.2442 12.5119 23.6173 12.8701 23.1963C12.9955 23.0351 13.1925 22.8739 13.2911 22.8381C13.5866 22.7127 14.0434 22.7396 14.33 22.8829Z" fill="#0029B7"/>
<path d="M20.2314 14.3297C19.1208 14.464 18.1177 15.1805 17.6162 16.2015C17.3475 16.7568 17.3296 16.8463 17.3296 17.7777C17.3296 18.7181 17.3475 18.7987 17.6251 19.363C18.4581 21.0646 20.5986 21.7184 22.4345 20.8228C23.2764 20.4198 23.2675 20.4287 22.8286 19.7212L22.4435 19.1032L22.0584 19.3809C21.7181 19.6137 21.5658 19.6585 21.0195 19.6854C20.4553 19.7123 20.312 19.6854 19.8821 19.4615C19.4701 19.2555 19.3447 19.1301 19.1387 18.7181C18.682 17.8225 18.9059 16.7478 19.685 16.1567C20.3567 15.6372 21.2523 15.6641 21.9599 16.2194L22.2823 16.4702L22.7838 15.9059L23.2764 15.3417L23.0794 15.1626C22.336 14.4819 21.3598 14.1953 20.2314 14.3297Z" fill="#0029B7"/>
<path d="M4.92627 17.7777V21.1362H7.34441H9.76254V20.4645V19.7928H8.15045H6.53836V19.0763V18.3599H7.88177H9.22518V17.7329V17.115L7.90864 17.0881L6.58314 17.0612L6.55627 16.4074L6.5294 15.7626H8.10567H9.67298V15.0909V14.4192H7.29963H4.92627V17.7777Z" fill="#0029B7"/>
<path d="M41.5734 23.7348V17.4144L42.3911 19.5801L35.5845 8.26519H39.3856L44.601 16.9503H42.4132L47.6508 8.26519H51.1646L44.358 19.5801L45.1535 17.4144V23.7348H41.5734Z" fill="black"/>
<path d="M55.8258 14.4972H63.2734V17.2818H55.8258V14.4972ZM56.091 20.8619H64.5109V23.7348H52.533V8.26519H64.2236V11.1381H56.091V20.8619Z" fill="black"/>
<path d="M74.7628 24C73.5695 24 72.4571 23.8085 71.4258 23.4254C70.4092 23.0276 69.5253 22.4678 68.7739 21.7459C68.0225 21.0239 67.4332 20.1768 67.0059 19.2044C66.5934 18.232 66.3871 17.1639 66.3871 16C66.3871 14.8361 66.5934 13.768 67.0059 12.7956C67.4332 11.8232 68.0225 10.9761 68.7739 10.2541C69.54 9.53223 70.4313 8.97974 71.4479 8.59668C72.4645 8.19889 73.5768 8 74.7849 8C76.1256 8 77.3337 8.23573 78.4092 8.70718C79.4995 9.1639 80.4129 9.84162 81.1496 10.7403L78.8512 12.8619C78.3208 12.2578 77.7315 11.8085 77.0833 11.5138C76.435 11.2044 75.7278 11.0497 74.9617 11.0497C74.2398 11.0497 73.5768 11.1676 72.9728 11.4033C72.3687 11.639 71.8457 11.9779 71.4037 12.4199C70.9617 12.8619 70.6155 13.3849 70.365 13.989C70.1293 14.593 70.0114 15.2634 70.0114 16C70.0114 16.7366 70.1293 17.407 70.365 18.011C70.6155 18.6151 70.9617 19.1381 71.4037 19.5801C71.8457 20.0221 72.3687 20.361 72.9728 20.5967C73.5768 20.8324 74.2398 20.9503 74.9617 20.9503C75.7278 20.9503 76.435 20.8029 77.0833 20.5083C77.7315 20.1989 78.3208 19.7348 78.8512 19.116L81.1496 21.2376C80.4129 22.1363 79.4995 22.8214 78.4092 23.2928C77.3337 23.7643 76.1183 24 74.7628 24Z" fill="black"/>
</svg>
